<mxfile host="app.diagrams.net" agent="Mozilla/5.0 (Windows NT 10.0; Win64; x64) AppleWebKit/537.36 (KHTML, like Gecko) Chrome/134.0.0.0 Safari/537.36" version="26.2.4" pages="2">
  <diagram name="Trang-1" id="i71YuMCdRbBvFsfiBkms">
    <mxGraphModel dx="2867" dy="1121" grid="1" gridSize="10" guides="1" tooltips="1" connect="1" arrows="1" fold="1" page="1" pageScale="1" pageWidth="827" pageHeight="1169" math="0" shadow="0">
      <root>
        <mxCell id="0" />
        <mxCell id="1" parent="0" />
        <UserObject label="" plantUmlData="{&quot;data&quot;:&quot;@startuml\n\nentity User {\n  + id : INT &lt;&lt;PK&gt;&gt;\n  + name : VARCHAR\n  + email : VARCHAR\n  + phone : VARCHAR\n  + password : VARCHAR\n}\n\nentity Application {\n  + id : INT &lt;&lt;PK&gt;&gt;\n  + user_id : INT &lt;&lt;FK&gt;&gt;\n  + course_id : INT &lt;&lt;FK&gt;&gt;\n  + status_id : INT &lt;&lt;FK&gt;&gt;\n  + submit_date : DATE\n}\n\nentity ChatbotInteraction {\n  + id : INT &lt;&lt;PK&gt;&gt;\n  + user_id : INT &lt;&lt;FK&gt;&gt;\n  + message : TEXT\n  + response : TEXT\n  + timestamp : DATETIME\n}\n\nentity Course {\n  + id : INT &lt;&lt;PK&gt;&gt;\n  + course_code : VARCHAR\n  + course_name : VARCHAR\n  + subject_combination : VARCHAR\n  + course_description : TEXT\n  + entry_score : FLOAT\n  + training_duration : INT\n  + tuition_fee : DECIMAL\n  + salary_after_graduation : DECIMAL\n}\n\nentity AdmissionStatus {\n  + id : INT &lt;&lt;PK&gt;&gt;\n  + status_name : VARCHAR\n}\n\nentity Admin {\n  + id : INT &lt;&lt;PK&gt;&gt;\n  + name : VARCHAR\n  + email : VARCHAR\n  + password : VARCHAR\n}\n\nentity News {\n  + id : INT &lt;&lt;PK&gt;&gt;\n  + title : VARCHAR\n  + content : TEXT\n  + publish_date : DATE\n}\n\nentity FAQ {\n  + id : INT &lt;&lt;PK&gt;&gt;\n  + question : TEXT\n  + answer : TEXT\n  + created_at : DATETIME\n}\n\nentity Contact {\n  + id : INT &lt;&lt;PK&gt;&gt;\n  + user_id : INT &lt;&lt;FK&gt;&gt;\n  + message : TEXT\n  + response : TEXT\n  + contact_date : DATETIME\n}\n\nentity RegistrationGuide {\n  + id : INT &lt;&lt;PK&gt;&gt;\n  + title : VARCHAR\n  + content : TEXT\n  + last_updated : DATETIME\n}\n\nentity ApplicationResult {\n  + id : INT &lt;&lt;PK&gt;&gt;\n  + application_id : INT &lt;&lt;FK&gt;&gt;\n  + result_status : VARCHAR\n  + decision_date : DATE\n}\n\nUser ||--|{ Application : \&quot;có thể nộp\&quot;\nApplication }|--|| Course : \&quot;đăng ký vào\&quot;\nApplication }|--|| AdmissionStatus : \&quot;có trạng thái\&quot;\nUser ||--|{ ChatbotInteraction : \&quot;có nhiều cuộc hội thoại\&quot;\nUser ||--|{ Contact : \&quot;có thể gửi liên hệ\&quot;\nUser ||--|{ ApplicationResult : \&quot;nhận kết quả xét tuyển\&quot;\nAdmin ||--|{ News : \&quot;quản lý tin tức\&quot;\nAdmin ||--|{ FAQ : \&quot;quản lý hỏi đáp\&quot;\nAdmin ||--|{ RegistrationGuide : \&quot;quản lý hướng dẫn\&quot;\n\n@enduml\n&quot;,&quot;format&quot;:&quot;svg&quot;}" id="sKtavU_HaUShChVdN3OP-1">
          <mxCell style="shape=image;noLabel=1;verticalAlign=top;aspect=fixed;imageAspect=0;image=data:image/svg+xml,PHN2ZyB4bWxucz0iaHR0cDovL3d3dy53My5vcmcvMjAwMC9zdmciIHhtbG5zOnhsaW5rPSJodHRwOi8vd3d3LnczLm9yZy8xOTk5L3hsaW5rIiBjb250ZW50U3R5bGVUeXBlPSJ0ZXh0L2NzcyIgZGF0YS1kaWFncmFtLXR5cGU9IkNMQVNTIiBoZWlnaHQ9IjU5MnB4IiBwcmVzZXJ2ZUFzcGVjdFJhdGlvPSJub25lIiBzdHlsZT0id2lkdGg6MTYzNHB4O2hlaWdodDo1OTJweDtiYWNrZ3JvdW5kOiNGRkZGRkY7IiB2ZXJzaW9uPSIxLjEiIHZpZXdCb3g9IjAgMCAxNjM0IDU5MiIgd2lkdGg9IjE2MzRweCIgem9vbUFuZFBhbj0ibWFnbmlmeSI+PGRlZnMvPjxnPjwhLS1jbGFzcyBVc2VyLS0+PGcgY2xhc3M9ImVudGl0eSIgZGF0YS1lbnRpdHk9IlVzZXIiIGRhdGEtc291cmNlLWxpbmU9IjEiIGRhdGEtdWlkPSJlbnQwMDAyIiBpZD0iZW50aXR5X1VzZXIiPjxyZWN0IGZpbGw9IiNGMUYxRjEiIGhlaWdodD0iMTIyLjkyMTkiIHJ4PSIyLjUiIHJ5PSIyLjUiIHN0eWxlPSJzdHJva2U6IzE4MTgxODtzdHJva2Utd2lkdGg6MC41OyIgd2lkdGg9IjE1MiIgeD0iNDkxLjUiIHk9IjciLz48ZWxsaXBzZSBjeD0iNTQ5LjI1IiBjeT0iMjMiIGZpbGw9IiNBREQxQjIiIHJ4PSIxMSIgcnk9IjExIiBzdHlsZT0ic3Ryb2tlOiMxODE4MTg7c3Ryb2tlLXdpZHRoOjE7Ii8+PHBhdGggZD0iTTU1Mi44NzUsMjkgTDU1Mi44NzUsMjcuMjUgTDU0Ny41NjI1LDI3LjI1IFE1NDcuNTYyNSwyNy4yNSA1NDcuNTYyNSwyMy42ODc1IEw1NTEuODEyNSwyMy42ODc1IEw1NTEuODEyNSwyMS45Mzc1IEw1NDcuNTYyNSwyMS45Mzc1IEw1NDcuNTYyNSwxOS40Mzc1IEw1NTIuODc1LDE5LjQzNzUgTDU1Mi44NzUsMTcuNjg3NSBMNTQ1LjgxMjUsMTcuNjg3NSBRNTQ1LjgxMjUsMTcuNjg3NSA1NDUuODEyNSwyOSBMNTUyLjg3NSwyOSBaICIgZmlsbD0iIzAwMDAwMCIvPjx0ZXh0IGZpbGw9IiMwMDAwMDAiIGZvbnQtZmFtaWx5PSJzYW5zLXNlcmlmIiBmb250LXNpemU9IjE0IiBsZW5ndGhBZGp1c3Q9InNwYWNpbmciIHRleHRMZW5ndGg9IjI4IiB4PSI1NjkuNzUiIHk9IjI4Ljc0MjIiPlVzZXI8L3RleHQ+PGxpbmUgc3R5bGU9InN0cm9rZTojMTgxODE4O3N0cm9rZS13aWR0aDowLjU7IiB4MT0iNDkyLjUiIHgyPSI2NDIuNSIgeTE9IjM5IiB5Mj0iMzkiLz48ZWxsaXBzZSBjeD0iNTAyLjUiIGN5PSI1MS45OTIyIiBmaWxsPSJub25lIiByeD0iMyIgcnk9IjMiIHN0eWxlPSJzdHJva2U6IzAzODA0ODtzdHJva2Utd2lkdGg6MTsiLz48dGV4dCBmaWxsPSIjMDAwMDAwIiBmb250LWZhbWlseT0ic2Fucy1zZXJpZiIgZm9udC1zaXplPSIxNCIgbGVuZ3RoQWRqdXN0PSJzcGFjaW5nIiB0ZXh0TGVuZ3RoPSI5MSIgeD0iNTExLjUiIHk9IjU2LjIzNDQiPmlkIDogSU5UICYjMTcxO1BLJiMxODc7PC90ZXh0PjxlbGxpcHNlIGN4PSI1MDIuNSIgY3k9IjY2Ljk3NjYiIGZpbGw9Im5vbmUiIHJ4PSIzIiByeT0iMyIgc3R5bGU9InN0cm9rZTojMDM4MDQ4O3N0cm9rZS13aWR0aDoxOyIvPjx0ZXh0IGZpbGw9IiMwMDAwMDAiIGZvbnQtZmFtaWx5PSJzYW5zLXNlcmlmIiBmb250LXNpemU9IjE0IiBsZW5ndGhBZGp1c3Q9InNwYWNpbmciIHRleHRMZW5ndGg9Ijk4IiB4PSI1MTEuNSIgeT0iNzEuMjE4OCI+bmFtZSA6IFZBUkNIQVI8L3RleHQ+PGVsbGlwc2UgY3g9IjUwMi41IiBjeT0iODEuOTYwOSIgZmlsbD0ibm9uZSIgcng9IjMiIHJ5PSIzIiBzdHlsZT0ic3Ryb2tlOiMwMzgwNDg7c3Ryb2tlLXdpZHRoOjE7Ii8+PHRleHQgZmlsbD0iIzAwMDAwMCIgZm9udC1mYW1pbHk9InNhbnMtc2VyaWYiIGZvbnQtc2l6ZT0iMTQiIGxlbmd0aEFkanVzdD0ic3BhY2luZyIgdGV4dExlbmd0aD0iMTA1IiB4PSI1MTEuNSIgeT0iODYuMjAzMSI+ZW1haWwgOiBWQVJDSEFSPC90ZXh0PjxlbGxpcHNlIGN4PSI1MDIuNSIgY3k9Ijk2Ljk0NTMiIGZpbGw9Im5vbmUiIHJ4PSIzIiByeT0iMyIgc3R5bGU9InN0cm9rZTojMDM4MDQ4O3N0cm9rZS13aWR0aDoxOyIvPjx0ZXh0IGZpbGw9IiMwMDAwMDAiIGZvbnQtZmFtaWx5PSJzYW5zLXNlcmlmIiBmb250LXNpemU9IjE0IiBsZW5ndGhBZGp1c3Q9InNwYWNpbmciIHRleHRMZW5ndGg9IjEwNSIgeD0iNTExLjUiIHk9IjEwMS4xODc1Ij5waG9uZSA6IFZBUkNIQVI8L3RleHQ+PGVsbGlwc2UgY3g9IjUwMi41IiBjeT0iMTExLjkyOTciIGZpbGw9Im5vbmUiIHJ4PSIzIiByeT0iMyIgc3R5bGU9InN0cm9rZTojMDM4MDQ4O3N0cm9rZS13aWR0aDoxOyIvPjx0ZXh0IGZpbGw9IiMwMDAwMDAiIGZvbnQtZmFtaWx5PSJzYW5zLXNlcmlmIiBmb250LXNpemU9IjE0IiBsZW5ndGhBZGp1c3Q9InNwYWNpbmciIHRleHRMZW5ndGg9IjEyNiIgeD0iNTExLjUiIHk9IjExNi4xNzE5Ij5wYXNzd29yZCA6IFZBUkNIQVI8L3RleHQ+PGxpbmUgc3R5bGU9InN0cm9rZTojMTgxODE4O3N0cm9rZS13aWR0aDowLjU7IiB4MT0iNDkyLjUiIHgyPSI2NDIuNSIgeTE9IjEyMS45MjE5IiB5Mj0iMTIxLjkyMTkiLz48L2c+PCEtLWNsYXNzIEFwcGxpY2F0aW9uLS0+PGcgY2xhc3M9ImVudGl0eSIgZGF0YS1lbnRpdHk9IkFwcGxpY2F0aW9uIiBkYXRhLXNvdXJjZS1saW5lPSI5IiBkYXRhLXVpZD0iZW50MDAwMyIgaWQ9ImVudGl0eV9BcHBsaWNhdGlvbiI+PHJlY3QgZmlsbD0iI0YxRjFGMSIgaGVpZ2h0PSIxMjIuOTIxOSIgcng9IjIuNSIgcnk9IjIuNSIgc3R5bGU9InN0cm9rZTojMTgxODE4O3N0cm9rZS13aWR0aDowLjU7IiB3aWR0aD0iMTY2IiB4PSIxNzcuNSIgeT0iMjA1Ii8+PGVsbGlwc2UgY3g9IjIxOC4xNSIgY3k9IjIyMSIgZmlsbD0iI0FERDFCMiIgcng9IjExIiByeT0iMTEiIHN0eWxlPSJzdHJva2U6IzE4MTgxODtzdHJva2Utd2lkdGg6MTsiLz48cGF0aCBkPSJNMjIxLjc3NSwyMjcgTDIyMS43NzUsMjI1LjI1IEwyMTYuNDYyNSwyMjUuMjUgUTIxNi40NjI1LDIyNS4yNSAyMTYuNDYyNSwyMjEuNjg3NSBMMjIwLjcxMjUsMjIxLjY4NzUgTDIyMC43MTI1LDIxOS45Mzc1IEwyMTYuNDYyNSwyMTkuOTM3NSBMMjE2LjQ2MjUsMjE3LjQzNzUgTDIyMS43NzUsMjE3LjQzNzUgTDIyMS43NzUsMjE1LjY4NzUgTDIxNC43MTI1LDIxNS42ODc1IFEyMTQuNzEyNSwyMTUuNjg3NSAyMTQuNzEyNSwyMjcgTDIyMS43NzUsMjI3IFogIiBmaWxsPSIjMDAwMDAwIi8+PHRleHQgZmlsbD0iIzAwMDAwMCIgZm9udC1mYW1pbHk9InNhbnMtc2VyaWYiIGZvbnQtc2l6ZT0iMTQiIGxlbmd0aEFkanVzdD0ic3BhY2luZyIgdGV4dExlbmd0aD0iNzciIHg9IjIzNy44NSIgeT0iMjI2Ljc0MjIiPkFwcGxpY2F0aW9uPC90ZXh0PjxsaW5lIHN0eWxlPSJzdHJva2U6IzE4MTgxODtzdHJva2Utd2lkdGg6MC41OyIgeDE9IjE3OC41IiB4Mj0iMzQyLjUiIHkxPSIyMzciIHkyPSIyMzciLz48ZWxsaXBzZSBjeD0iMTg4LjUiIGN5PSIyNDkuOTkyMiIgZmlsbD0ibm9uZSIgcng9IjMiIHJ5PSIzIiBzdHlsZT0ic3Ryb2tlOiMwMzgwNDg7c3Ryb2tlLXdpZHRoOjE7Ii8+PHRleHQgZmlsbD0iIzAwMDAwMCIgZm9udC1mYW1pbHk9InNhbnMtc2VyaWYiIGZvbnQtc2l6ZT0iMTQiIGxlbmd0aEFkanVzdD0ic3BhY2luZyIgdGV4dExlbmd0aD0iOTEiIHg9IjE5Ny41IiB5PSIyNTQuMjM0NCI+aWQgOiBJTlQgJiMxNzE7UEsmIzE4Nzs8L3RleHQ+PGVsbGlwc2UgY3g9IjE4OC41IiBjeT0iMjY0Ljk3NjYiIGZpbGw9Im5vbmUiIHJ4PSIzIiByeT0iMyIgc3R5bGU9InN0cm9rZTojMDM4MDQ4O3N0cm9rZS13aWR0aDoxOyIvPjx0ZXh0IGZpbGw9IiMwMDAwMDAiIGZvbnQtZmFtaWx5PSJzYW5zLXNlcmlmIiBmb250LXNpemU9IjE0IiBsZW5ndGhBZGp1c3Q9InNwYWNpbmciIHRleHRMZW5ndGg9IjEyNiIgeD0iMTk3LjUiIHk9IjI2OS4yMTg4Ij51c2VyX2lkIDogSU5UICYjMTcxO0ZLJiMxODc7PC90ZXh0PjxlbGxpcHNlIGN4PSIxODguNSIgY3k9IjI3OS45NjA5IiBmaWxsPSJub25lIiByeD0iMyIgcnk9IjMiIHN0eWxlPSJzdHJva2U6IzAzODA0ODtzdHJva2Utd2lkdGg6MTsiLz48dGV4dCBmaWxsPSIjMDAwMDAwIiBmb250LWZhbWlseT0ic2Fucy1zZXJpZiIgZm9udC1zaXplPSIxNCIgbGVuZ3RoQWRqdXN0PSJzcGFjaW5nIiB0ZXh0TGVuZ3RoPSIxNDAiIHg9IjE5Ny41IiB5PSIyODQuMjAzMSI+Y291cnNlX2lkIDogSU5UICYjMTcxO0ZLJiMxODc7PC90ZXh0PjxlbGxpcHNlIGN4PSIxODguNSIgY3k9IjI5NC45NDUzIiBmaWxsPSJub25lIiByeD0iMyIgcnk9IjMiIHN0eWxlPSJzdHJva2U6IzAzODA0ODtzdHJva2Utd2lkdGg6MTsiLz48dGV4dCBmaWxsPSIjMDAwMDAwIiBmb250LWZhbWlseT0ic2Fucy1zZXJpZiIgZm9udC1zaXplPSIxNCIgbGVuZ3RoQWRqdXN0PSJzcGFjaW5nIiB0ZXh0TGVuZ3RoPSIxNDAiIHg9IjE5Ny41IiB5PSIyOTkuMTg3NSI+c3RhdHVzX2lkIDogSU5UICYjMTcxO0ZLJiMxODc7PC90ZXh0PjxlbGxpcHNlIGN4PSIxODguNSIgY3k9IjMwOS45Mjk3IiBmaWxsPSJub25lIiByeD0iMyIgcnk9IjMiIHN0eWxlPSJzdHJva2U6IzAzODA0ODtzdHJva2Utd2lkdGg6MTsiLz48dGV4dCBmaWxsPSIjMDAwMDAwIiBmb250LWZhbWlseT0ic2Fucy1zZXJpZiIgZm9udC1zaXplPSIxNCIgbGVuZ3RoQWRqdXN0PSJzcGFjaW5nIiB0ZXh0TGVuZ3RoPSIxMjYiIHg9IjE5Ny41IiB5PSIzMTQuMTcxOSI+c3VibWl0X2RhdGUgOiBEQVRFPC90ZXh0PjxsaW5lIHN0eWxlPSJzdHJva2U6IzE4MTgxODtzdHJva2Utd2lkdGg6MC41OyIgeDE9IjE3OC41IiB4Mj0iMzQyLjUiIHkxPSIzMTkuOTIxOSIgeTI9IjMxOS45MjE5Ii8+PC9nPjwhLS1jbGFzcyBDaGF0Ym90SW50ZXJhY3Rpb24tLT48ZyBjbGFzcz0iZW50aXR5IiBkYXRhLWVudGl0eT0iQ2hhdGJvdEludGVyYWN0aW9uIiBkYXRhLXNvdXJjZS1saW5lPSIxNyIgZGF0YS11aWQ9ImVudDAwMDQiIGlkPSJlbnRpdHlfQ2hhdGJvdEludGVyYWN0aW9uIj48cmVjdCBmaWxsPSIjRjFGMUYxIiBoZWlnaHQ9IjEyMi45MjE5IiByeD0iMi41IiByeT0iMi41IiBzdHlsZT0ic3Ryb2tlOiMxODE4MTg7c3Ryb2tlLXdpZHRoOjAuNTsiIHdpZHRoPSIxNjYiIHg9IjM3OC41IiB5PSIyMDUiLz48ZWxsaXBzZSBjeD0iMzk3LjEiIGN5PSIyMjEiIGZpbGw9IiNBREQxQjIiIHJ4PSIxMSIgcnk9IjExIiBzdHlsZT0ic3Ryb2tlOiMxODE4MTg7c3Ryb2tlLXdpZHRoOjE7Ii8+PHBhdGggZD0iTTQwMC43MjUsMjI3IEw0MDAuNzI1LDIyNS4yNSBMMzk1LjQxMjUsMjI1LjI1IFEzOTUuNDEyNSwyMjUuMjUgMzk1LjQxMjUsMjIxLjY4NzUgTDM5OS42NjI1LDIyMS42ODc1IEwzOTkuNjYyNSwyMTkuOTM3NSBMMzk1LjQxMjUsMjE5LjkzNzUgTDM5NS40MTI1LDIxNy40Mzc1IEw0MDAuNzI1LDIxNy40Mzc1IEw0MDAuNzI1LDIxNS42ODc1IEwzOTMuNjYyNSwyMTUuNjg3NSBRMzkzLjY2MjUsMjE1LjY4NzUgMzkzLjY2MjUsMjI3IEw0MDAuNzI1LDIyNyBaICIgZmlsbD0iIzAwMDAwMCIvPjx0ZXh0IGZpbGw9IiMwMDAwMDAiIGZvbnQtZmFtaWx5PSJzYW5zLXNlcmlmIiBmb250LXNpemU9IjE0IiBsZW5ndGhBZGp1c3Q9InNwYWNpbmciIHRleHRMZW5ndGg9IjEyNiIgeD0iNDExLjkiIHk9IjIyNi43NDIyIj5DaGF0Ym90SW50ZXJhY3Rpb248L3RleHQ+PGxpbmUgc3R5bGU9InN0cm9rZTojMTgxODE4O3N0cm9rZS13aWR0aDowLjU7IiB4MT0iMzc5LjUiIHgyPSI1NDMuNSIgeTE9IjIzNyIgeTI9IjIzNyIvPjxlbGxpcHNlIGN4PSIzODkuNSIgY3k9IjI0OS45OTIyIiBmaWxsPSJub25lIiByeD0iMyIgcnk9IjMiIHN0eWxlPSJzdHJva2U6IzAzODA0ODtzdHJva2Utd2lkdGg6MTsiLz48dGV4dCBmaWxsPSIjMDAwMDAwIiBmb250LWZhbWlseT0ic2Fucy1zZXJpZiIgZm9udC1zaXplPSIxNCIgbGVuZ3RoQWRqdXN0PSJzcGFjaW5nIiB0ZXh0TGVuZ3RoPSI5MSIgeD0iMzk4LjUiIHk9IjI1NC4yMzQ0Ij5pZCA6IElOVCAmIzE3MTtQSyYjMTg3OzwvdGV4dD48ZWxsaXBzZSBjeD0iMzg5LjUiIGN5PSIyNjQuOTc2NiIgZmlsbD0ibm9uZSIgcng9IjMiIHJ5PSIzIiBzdHlsZT0ic3Ryb2tlOiMwMzgwNDg7c3Ryb2tlLXdpZHRoOjE7Ii8+PHRleHQgZmlsbD0iIzAwMDAwMCIgZm9udC1mYW1pbHk9InNhbnMtc2VyaWYiIGZvbnQtc2l6ZT0iMTQiIGxlbmd0aEFkanVzdD0ic3BhY2luZyIgdGV4dExlbmd0aD0iMTI2IiB4PSIzOTguNSIgeT0iMjY5LjIxODgiPnVzZXJfaWQgOiBJTlQgJiMxNzE7RksmIzE4Nzs8L3RleHQ+PGVsbGlwc2UgY3g9IjM4OS41IiBjeT0iMjc5Ljk2MDkiIGZpbGw9Im5vbmUiIHJ4PSIzIiByeT0iMyIgc3R5bGU9InN0cm9rZTojMDM4MDQ4O3N0cm9rZS13aWR0aDoxOyIvPjx0ZXh0IGZpbGw9IiMwMDAwMDAiIGZvbnQtZmFtaWx5PSJzYW5zLXNlcmlmIiBmb250LXNpemU9IjE0IiBsZW5ndGhBZGp1c3Q9InNwYWNpbmciIHRleHRMZW5ndGg9Ijk4IiB4PSIzOTguNSIgeT0iMjg0LjIwMzEiPm1lc3NhZ2UgOiBURVhUPC90ZXh0PjxlbGxpcHNlIGN4PSIzODkuNSIgY3k9IjI5NC45NDUzIiBmaWxsPSJub25lIiByeD0iMyIgcnk9IjMiIHN0eWxlPSJzdHJva2U6IzAzODA0ODtzdHJva2Utd2lkdGg6MTsiLz48dGV4dCBmaWxsPSIjMDAwMDAwIiBmb250LWZhbWlseT0ic2Fucy1zZXJpZiIgZm9udC1zaXplPSIxNCIgbGVuZ3RoQWRqdXN0PSJzcGFjaW5nIiB0ZXh0TGVuZ3RoPSIxMDUiIHg9IjM5OC41IiB5PSIyOTkuMTg3NSI+cmVzcG9uc2UgOiBURVhUPC90ZXh0PjxlbGxpcHNlIGN4PSIzODkuNSIgY3k9IjMwOS45Mjk3IiBmaWxsPSJub25lIiByeD0iMyIgcnk9IjMiIHN0eWxlPSJzdHJva2U6IzAzODA0ODtzdHJva2Utd2lkdGg6MTsiLz48dGV4dCBmaWxsPSIjMDAwMDAwIiBmb250LWZhbWlseT0ic2Fucy1zZXJpZiIgZm9udC1zaXplPSIxNCIgbGVuZ3RoQWRqdXN0PSJzcGFjaW5nIiB0ZXh0TGVuZ3RoPSIxNDAiIHg9IjM5OC41IiB5PSIzMTQuMTcxOSI+dGltZXN0YW1wIDogREFURVRJTUU8L3RleHQ+PGxpbmUgc3R5bGU9InN0cm9rZTojMTgxODE4O3N0cm9rZS13aWR0aDowLjU7IiB4MT0iMzc5LjUiIHgyPSI1NDMuNSIgeTE9IjMxOS45MjE5IiB5Mj0iMzE5LjkyMTkiLz48L2c+PCEtLWNsYXNzIENvdXJzZS0tPjxnIGNsYXNzPSJlbnRpdHkiIGRhdGEtZW50aXR5PSJDb3Vyc2UiIGRhdGEtc291cmNlLWxpbmU9IjI1IiBkYXRhLXVpZD0iZW50MDAwNSIgaWQ9ImVudGl0eV9Db3Vyc2UiPjxyZWN0IGZpbGw9IiNGMUYxRjEiIGhlaWdodD0iMTgyLjg1OTQiIHJ4PSIyLjUiIHJ5PSIyLjUiIHN0eWxlPSJzdHJva2U6IzE4MTgxODtzdHJva2Utd2lkdGg6MC41OyIgd2lkdGg9IjI1NyIgeD0iNyIgeT0iNDAzIi8+PGVsbGlwc2UgY3g9IjExMC4yNSIgY3k9IjQxOSIgZmlsbD0iI0FERDFCMiIgcng9IjExIiByeT0iMTEiIHN0eWxlPSJzdHJva2U6IzE4MTgxODtzdHJva2Utd2lkdGg6MTsiLz48cGF0aCBkPSJNMTEzLjg3NSw0MjUgTDExMy44NzUsNDIzLjI1IEwxMDguNTYyNSw0MjMuMjUgUTEwOC41NjI1LDQyMy4yNSAxMDguNTYyNSw0MTkuNjg3NSBMMTEyLjgxMjUsNDE5LjY4NzUgTDExMi44MTI1LDQxNy45Mzc1IEwxMDguNTYyNSw0MTcuOTM3NSBMMTA4LjU2MjUsNDE1LjQzNzUgTDExMy44NzUsNDE1LjQzNzUgTDExMy44NzUsNDEzLjY4NzUgTDEwNi44MTI1LDQxMy42ODc1IFExMDYuODEyNSw0MTMuNjg3NSAxMDYuODEyNSw0MjUgTDExMy44NzUsNDI1IFogIiBmaWxsPSIjMDAwMDAwIi8+PHRleHQgZmlsbD0iIzAwMDAwMCIgZm9udC1mYW1pbHk9InNhbnMtc2VyaWYiIGZvbnQtc2l6ZT0iMTQiIGxlbmd0aEFkanVzdD0ic3BhY2luZyIgdGV4dExlbmd0aD0iNDIiIHg9IjEzMC43NSIgeT0iNDI0Ljc0MjIiPkNvdXJzZTwvdGV4dD48bGluZSBzdHlsZT0ic3Ryb2tlOiMxODE4MTg7c3Ryb2tlLXdpZHRoOjAuNTsiIHgxPSI4IiB4Mj0iMjYzIiB5MT0iNDM1IiB5Mj0iNDM1Ii8+PGVsbGlwc2UgY3g9IjE4IiBjeT0iNDQ3Ljk5MjIiIGZpbGw9Im5vbmUiIHJ4PSIzIiByeT0iMyIgc3R5bGU9InN0cm9rZTojMDM4MDQ4O3N0cm9rZS13aWR0aDoxOyIvPjx0ZXh0IGZpbGw9IiMwMDAwMDAiIGZvbnQtZmFtaWx5PSJzYW5zLXNlcmlmIiBmb250LXNpemU9IjE0IiBsZW5ndGhBZGp1c3Q9InNwYWNpbmciIHRleHRMZW5ndGg9IjkxIiB4PSIyNyIgeT0iNDUyLjIzNDQiPmlkIDogSU5UICYjMTcxO1BLJiMxODc7PC90ZXh0PjxlbGxpcHNlIGN4PSIxOCIgY3k9IjQ2Mi45NzY2IiBmaWxsPSJub25lIiByeD0iMyIgcnk9IjMiIHN0eWxlPSJzdHJva2U6IzAzODA0ODtzdHJva2Utd2lkdGg6MTsiLz48dGV4dCBmaWxsPSIjMDAwMDAwIiBmb250LWZhbWlseT0ic2Fucy1zZXJpZiIgZm9udC1zaXplPSIxNCIgbGVuZ3RoQWRqdXN0PSJzcGFjaW5nIiB0ZXh0TGVuZ3RoPSIxNDciIHg9IjI3IiB5PSI0NjcuMjE4OCI+Y291cnNlX2NvZGUgOiBWQVJDSEFSPC90ZXh0PjxlbGxpcHNlIGN4PSIxOCIgY3k9IjQ3Ny45NjA5IiBmaWxsPSJub25lIiByeD0iMyIgcnk9IjMiIHN0eWxlPSJzdHJva2U6IzAzODA0ODtzdHJva2Utd2lkdGg6MTsiLz48dGV4dCBmaWxsPSIjMDAwMDAwIiBmb250LWZhbWlseT0ic2Fucy1zZXJpZiIgZm9udC1zaXplPSIxNCIgbGVuZ3RoQWRqdXN0PSJzcGFjaW5nIiB0ZXh0TGVuZ3RoPSIxNDciIHg9IjI3IiB5PSI0ODIuMjAzMSI+Y291cnNlX25hbWUgOiBWQVJDSEFSPC90ZXh0PjxlbGxpcHNlIGN4PSIxOCIgY3k9IjQ5Mi45NDUzIiBmaWxsPSJub25lIiByeD0iMyIgcnk9IjMiIHN0eWxlPSJzdHJva2U6IzAzODA0ODtzdHJva2Utd2lkdGg6MTsiLz48dGV4dCBmaWxsPSIjMDAwMDAwIiBmb250LWZhbWlseT0ic2Fucy1zZXJpZiIgZm9udC1zaXplPSIxNCIgbGVuZ3RoQWRqdXN0PSJzcGFjaW5nIiB0ZXh0TGVuZ3RoPSIyMDMiIHg9IjI3IiB5PSI0OTcuMTg3NSI+c3ViamVjdF9jb21iaW5hdGlvbiA6IFZBUkNIQVI8L3RleHQ+PGVsbGlwc2UgY3g9IjE4IiBjeT0iNTA3LjkyOTciIGZpbGw9Im5vbmUiIHJ4PSIzIiByeT0iMyIgc3R5bGU9InN0cm9rZTojMDM4MDQ4O3N0cm9rZS13aWR0aDoxOyIvPjx0ZXh0IGZpbGw9IiMwMDAwMDAiIGZvbnQtZmFtaWx5PSJzYW5zLXNlcmlmIiBmb250LXNpemU9IjE0IiBsZW5ndGhBZGp1c3Q9InNwYWNpbmciIHRleHRMZW5ndGg9IjE3NSIgeD0iMjciIHk9IjUxMi4xNzE5Ij5jb3Vyc2VfZGVzY3JpcHRpb24gOiBURVhUPC90ZXh0PjxlbGxpcHNlIGN4PSIxOCIgY3k9IjUyMi45MTQxIiBmaWxsPSJub25lIiByeD0iMyIgcnk9IjMiIHN0eWxlPSJzdHJva2U6IzAzODA0ODtzdHJva2Utd2lkdGg6MTsiLz48dGV4dCBmaWxsPSIjMDAwMDAwIiBmb250LWZhbWlseT0ic2Fucy1zZXJpZiIgZm9udC1zaXplPSIxNCIgbGVuZ3RoQWRqdXN0PSJzcGFjaW5nIiB0ZXh0TGVuZ3RoPSIxMzMiIHg9IjI3IiB5PSI1MjcuMTU2MyI+ZW50cnlfc2NvcmUgOiBGTE9BVDwvdGV4dD48ZWxsaXBzZSBjeD0iMTgiIGN5PSI1MzcuODk4NCIgZmlsbD0ibm9uZSIgcng9IjMiIHJ5PSIzIiBzdHlsZT0ic3Ryb2tlOiMwMzgwNDg7c3Ryb2tlLXdpZHRoOjE7Ii8+PHRleHQgZmlsbD0iIzAwMDAwMCIgZm9udC1mYW1pbHk9InNhbnMtc2VyaWYiIGZvbnQtc2l6ZT0iMTQiIGxlbmd0aEFkanVzdD0ic3BhY2luZyIgdGV4dExlbmd0aD0iMTYxIiB4PSIyNyIgeT0iNTQyLjE0MDYiPnRyYWluaW5nX2R1cmF0aW9uIDogSU5UPC90ZXh0PjxlbGxpcHNlIGN4PSIxOCIgY3k9IjU1Mi44ODI4IiBmaWxsPSJub25lIiByeD0iMyIgcnk9IjMiIHN0eWxlPSJzdHJva2U6IzAzODA0ODtzdHJva2Utd2lkdGg6MTsiLz48dGV4dCBmaWxsPSIjMDAwMDAwIiBmb250LWZhbWlseT0ic2Fucy1zZXJpZiIgZm9udC1zaXplPSIxNCIgbGVuZ3RoQWRqdXN0PSJzcGFjaW5nIiB0ZXh0TGVuZ3RoPSIxNDciIHg9IjI3IiB5PSI1NTcuMTI1Ij50dWl0aW9uX2ZlZSA6IERFQ0lNQUw8L3RleHQ+PGVsbGlwc2UgY3g9IjE4IiBjeT0iNTY3Ljg2NzIiIGZpbGw9Im5vbmUiIHJ4PSIzIiByeT0iMyIgc3R5bGU9InN0cm9rZTojMDM4MDQ4O3N0cm9rZS13aWR0aDoxOyIvPjx0ZXh0IGZpbGw9IiMwMDAwMDAiIGZvbnQtZmFtaWx5PSJzYW5zLXNlcmlmIiBmb250LXNpemU9IjE0IiBsZW5ndGhBZGp1c3Q9InNwYWNpbmciIHRleHRMZW5ndGg9IjIzMSIgeD0iMjciIHk9IjU3Mi4xMDk0Ij5zYWxhcnlfYWZ0ZXJfZ3JhZHVhdGlvbiA6IERFQ0lNQUw8L3RleHQ+PGxpbmUgc3R5bGU9InN0cm9rZTojMTgxODE4O3N0cm9rZS13aWR0aDowLjU7IiB4MT0iOCIgeDI9IjI2MyIgeTE9IjU3Ny44NTk0IiB5Mj0iNTc3Ljg1OTQiLz48L2c+PCEtLWNsYXNzIEFkbWlzc2lvblN0YXR1cy0tPjxnIGNsYXNzPSJlbnRpdHkiIGRhdGEtZW50aXR5PSJBZG1pc3Npb25TdGF0dXMiIGRhdGEtc291cmNlLWxpbmU9IjM3IiBkYXRhLXVpZD0iZW50MDAwNiIgaWQ9ImVudGl0eV9BZG1pc3Npb25TdGF0dXMiPjxyZWN0IGZpbGw9IiNGMUYxRjEiIGhlaWdodD0iNzcuOTY4OCIgcng9IjIuNSIgcnk9IjIuNSIgc3R5bGU9InN0cm9rZTojMTgxODE4O3N0cm9rZS13aWR0aDowLjU7IiB3aWR0aD0iMTczIiB4PSIyOTkiIHk9IjQ1NS41Ii8+PGVsbGlwc2UgY3g9IjMzMC4yIiBjeT0iNDcxLjUiIGZpbGw9IiNBREQxQjIiIHJ4PSIxMSIgcnk9IjExIiBzdHlsZT0ic3Ryb2tlOiMxODE4MTg7c3Ryb2tlLXdpZHRoOjE7Ii8+PHBhdGggZD0iTTMzMy44MjUsNDc3LjUgTDMzMy44MjUsNDc1Ljc1IEwzMjguNTEyNSw0NzUuNzUgUTMyOC41MTI1LDQ3NS43NSAzMjguNTEyNSw0NzIuMTg3NSBMMzMyLjc2MjUsNDcyLjE4NzUgTDMzMi43NjI1LDQ3MC40Mzc1IEwzMjguNTEyNSw0NzAuNDM3NSBMMzI4LjUxMjUsNDY3LjkzNzUgTDMzMy44MjUsNDY3LjkzNzUgTDMzMy44MjUsNDY2LjE4NzUgTDMyNi43NjI1LDQ2Ni4xODc1IFEzMjYuNzYyNSw0NjYuMTg3NSAzMjYuNzYyNSw0NzcuNSBMMzMzLjgyNSw0NzcuNSBaICIgZmlsbD0iIzAwMDAwMCIvPjx0ZXh0IGZpbGw9IiMwMDAwMDAiIGZvbnQtZmFtaWx5PSJzYW5zLXNlcmlmIiBmb250LXNpemU9IjE0IiBsZW5ndGhBZGp1c3Q9InNwYWNpbmciIHRleHRMZW5ndGg9IjEwNSIgeD0iMzQ3LjgiIHk9IjQ3Ny4yNDIyIj5BZG1pc3Npb25TdGF0dXM8L3RleHQ+PGxpbmUgc3R5bGU9InN0cm9rZTojMTgxODE4O3N0cm9rZS13aWR0aDowLjU7IiB4MT0iMzAwIiB4Mj0iNDcxIiB5MT0iNDg3LjUiIHkyPSI0ODcuNSIvPjxlbGxpcHNlIGN4PSIzMTAiIGN5PSI1MDAuNDkyMiIgZmlsbD0ibm9uZSIgcng9IjMiIHJ5PSIzIiBzdHlsZT0ic3Ryb2tlOiMwMzgwNDg7c3Ryb2tlLXdpZHRoOjE7Ii8+PHRleHQgZmlsbD0iIzAwMDAwMCIgZm9udC1mYW1pbHk9InNhbnMtc2VyaWYiIGZvbnQtc2l6ZT0iMTQiIGxlbmd0aEFkanVzdD0ic3BhY2luZyIgdGV4dExlbmd0aD0iOTEiIHg9IjMxOSIgeT0iNTA0LjczNDQiPmlkIDogSU5UICYjMTcxO1BLJiMxODc7PC90ZXh0PjxlbGxpcHNlIGN4PSIzMTAiIGN5PSI1MTUuNDc2NiIgZmlsbD0ibm9uZSIgcng9IjMiIHJ5PSIzIiBzdHlsZT0ic3Ryb2tlOiMwMzgwNDg7c3Ryb2tlLXdpZHRoOjE7Ii8+PHRleHQgZmlsbD0iIzAwMDAwMCIgZm9udC1mYW1pbHk9InNhbnMtc2VyaWYiIGZvbnQtc2l6ZT0iMTQiIGxlbmd0aEFkanVzdD0ic3BhY2luZyIgdGV4dExlbmd0aD0iMTQ3IiB4PSIzMTkiIHk9IjUxOS43MTg4Ij5zdGF0dXNfbmFtZSA6IFZBUkNIQVI8L3RleHQ+PGxpbmUgc3R5bGU9InN0cm9rZTojMTgxODE4O3N0cm9rZS13aWR0aDowLjU7IiB4MT0iMzAwIiB4Mj0iNDcxIiB5MT0iNTI1LjQ2ODgiIHkyPSI1MjUuNDY4OCIvPjwvZz48IS0tY2xhc3MgQWRtaW4tLT48ZyBjbGFzcz0iZW50aXR5IiBkYXRhLWVudGl0eT0iQWRtaW4iIGRhdGEtc291cmNlLWxpbmU9IjQyIiBkYXRhLXVpZD0iZW50MDAwNyIgaWQ9ImVudGl0eV9BZG1pbiI+PHJlY3QgZmlsbD0iI0YxRjFGMSIgaGVpZ2h0PSIxMDcuOTM3NSIgcng9IjIuNSIgcnk9IjIuNSIgc3R5bGU9InN0cm9rZTojMTgxODE4O3N0cm9rZS13aWR0aDowLjU7IiB3aWR0aD0iMTUyIiB4PSIxMjQyLjUiIHk9IjE0LjUiLz48ZWxsaXBzZSBjeD0iMTI5Ni43NSIgY3k9IjMwLjUiIGZpbGw9IiNBREQxQjIiIHJ4PSIxMSIgcnk9IjExIiBzdHlsZT0ic3Ryb2tlOiMxODE4MTg7c3Ryb2tlLXdpZHRoOjE7Ii8+PHBhdGggZD0iTTEzMDAuMzc1LDM2LjUgTDEzMDAuMzc1LDM0Ljc1IEwxMjk1LjA2MjUsMzQuNzUgUTEyOTUuMDYyNSwzNC43NSAxMjk1LjA2MjUsMzEuMTg3NSBMMTI5OS4zMTI1LDMxLjE4NzUgTDEyOTkuMzEyNSwyOS40Mzc1IEwxMjk1LjA2MjUsMjkuNDM3NSBMMTI5NS4wNjI1LDI2LjkzNzUgTDEzMDAuMzc1LDI2LjkzNzUgTDEzMDAuMzc1LDI1LjE4NzUgTDEyOTMuMzEyNSwyNS4xODc1IFExMjkzLjMxMjUsMjUuMTg3NSAxMjkzLjMxMjUsMzYuNSBMMTMwMC4zNzUsMzYuNSBaICIgZmlsbD0iIzAwMDAwMCIvPjx0ZXh0IGZpbGw9IiMwMDAwMDAiIGZvbnQtZmFtaWx5PSJzYW5zLXNlcmlmIiBmb250LXNpemU9IjE0IiBsZW5ndGhBZGp1c3Q9InNwYWNpbmciIHRleHRMZW5ndGg9IjM1IiB4PSIxMzE3LjI1IiB5PSIzNi4yNDIyIj5BZG1pbjwvdGV4dD48bGluZSBzdHlsZT0ic3Ryb2tlOiMxODE4MTg7c3Ryb2tlLXdpZHRoOjAuNTsiIHgxPSIxMjQzLjUiIHgyPSIxMzkzLjUiIHkxPSI0Ni41IiB5Mj0iNDYuNSIvPjxlbGxpcHNlIGN4PSIxMjUzLjUiIGN5PSI1OS40OTIyIiBmaWxsPSJub25lIiByeD0iMyIgcnk9IjMiIHN0eWxlPSJzdHJva2U6IzAzODA0ODtzdHJva2Utd2lkdGg6MTsiLz48dGV4dCBmaWxsPSIjMDAwMDAwIiBmb250LWZhbWlseT0ic2Fucy1zZXJpZiIgZm9udC1zaXplPSIxNCIgbGVuZ3RoQWRqdXN0PSJzcGFjaW5nIiB0ZXh0TGVuZ3RoPSI5MSIgeD0iMTI2Mi41IiB5PSI2My43MzQ0Ij5pZCA6IElOVCAmIzE3MTtQSyYjMTg3OzwvdGV4dD48ZWxsaXBzZSBjeD0iMTI1My41IiBjeT0iNzQuNDc2NiIgZmlsbD0ibm9uZSIgcng9IjMiIHJ5PSIzIiBzdHlsZT0ic3Ryb2tlOiMwMzgwNDg7c3Ryb2tlLXdpZHRoOjE7Ii8+PHRleHQgZmlsbD0iIzAwMDAwMCIgZm9udC1mYW1pbHk9InNhbnMtc2VyaWYiIGZvbnQtc2l6ZT0iMTQiIGxlbmd0aEFkanVzdD0ic3BhY2luZyIgdGV4dExlbmd0aD0iOTgiIHg9IjEyNjIuNSIgeT0iNzguNzE4OCI+bmFtZSA6IFZBUkNIQVI8L3RleHQ+PGVsbGlwc2UgY3g9IjEyNTMuNSIgY3k9Ijg5LjQ2MDkiIGZpbGw9Im5vbmUiIHJ4PSIzIiByeT0iMyIgc3R5bGU9InN0cm9rZTojMDM4MDQ4O3N0cm9rZS13aWR0aDoxOyIvPjx0ZXh0IGZpbGw9IiMwMDAwMDAiIGZvbnQtZmFtaWx5PSJzYW5zLXNlcmlmIiBmb250LXNpemU9IjE0IiBsZW5ndGhBZGp1c3Q9InNwYWNpbmciIHRleHRMZW5ndGg9IjEwNSIgeD0iMTI2Mi41IiB5PSI5My43MDMxIj5lbWFpbCA6IFZBUkNIQVI8L3RleHQ+PGVsbGlwc2UgY3g9IjEyNTMuNSIgY3k9IjEwNC40NDUzIiBmaWxsPSJub25lIiByeD0iMyIgcnk9IjMiIHN0eWxlPSJzdHJva2U6IzAzODA0ODtzdHJva2Utd2lkdGg6MTsiLz48dGV4dCBmaWxsPSIjMDAwMDAwIiBmb250LWZhbWlseT0ic2Fucy1zZXJpZiIgZm9udC1zaXplPSIxNCIgbGVuZ3RoQWRqdXN0PSJzcGFjaW5nIiB0ZXh0TGVuZ3RoPSIxMjYiIHg9IjEyNjIuNSIgeT0iMTA4LjY4NzUiPnBhc3N3b3JkIDogVkFSQ0hBUjwvdGV4dD48bGluZSBzdHlsZT0ic3Ryb2tlOiMxODE4MTg7c3Ryb2tlLXdpZHRoOjAuNTsiIHgxPSIxMjQzLjUiIHgyPSIxMzkzLjUiIHkxPSIxMTQuNDM3NSIgeTI9IjExNC40Mzc1Ii8+PC9nPjwhLS1jbGFzcyBOZXdzLS0+PGcgY2xhc3M9ImVudGl0eSIgZGF0YS1lbnRpdHk9Ik5ld3MiIGRhdGEtc291cmNlLWxpbmU9IjQ5IiBkYXRhLXVpZD0iZW50MDAwOCIgaWQ9ImVudGl0eV9OZXdzIj48cmVjdCBmaWxsPSIjRjFGMUYxIiBoZWlnaHQ9IjEwNy45Mzc1IiByeD0iMi41IiByeT0iMi41IiBzdHlsZT0ic3Ryb2tlOiMxODE4MTg7c3Ryb2tlLXdpZHRoOjAuNTsiIHdpZHRoPSIxNTkiIHg9IjEwMzgiIHk9IjIxMi41Ii8+PGVsbGlwc2UgY3g9IjEwOTkuMjUiIGN5PSIyMjguNSIgZmlsbD0iI0FERDFCMiIgcng9IjExIiByeT0iMTEiIHN0eWxlPSJzdHJva2U6IzE4MTgxODtzdHJva2Utd2lkdGg6MTsiLz48cGF0aCBkPSJNMTEwMi44NzUsMjM0LjUgTDExMDIuODc1LDIzMi43NSBMMTA5Ny41NjI1LDIzMi43NSBRMTA5Ny41NjI1LDIzMi43NSAxMDk3LjU2MjUsMjI5LjE4NzUgTDExMDEuODEyNSwyMjkuMTg3NSBMMTEwMS44MTI1LDIyNy40Mzc1IEwxMDk3LjU2MjUsMjI3LjQzNzUgTDEwOTcuNTYyNSwyMjQuOTM3NSBMMTEwMi44NzUsMjI0LjkzNzUgTDExMDIuODc1LDIyMy4xODc1IEwxMDk1LjgxMjUsMjIzLjE4NzUgUTEwOTUuODEyNSwyMjMuMTg3NSAxMDk1LjgxMjUsMjM0LjUgTDExMDIuODc1LDIzNC41IFogIiBmaWxsPSIjMDAwMDAwIi8+PHRleHQgZmlsbD0iIzAwMDAwMCIgZm9udC1mYW1pbHk9InNhbnMtc2VyaWYiIGZvbnQtc2l6ZT0iMTQiIGxlbmd0aEFkanVzdD0ic3BhY2luZyIgdGV4dExlbmd0aD0iMjgiIHg9IjExMTkuNzUiIHk9IjIzNC4yNDIyIj5OZXdzPC90ZXh0PjxsaW5lIHN0eWxlPSJzdHJva2U6IzE4MTgxODtzdHJva2Utd2lkdGg6MC41OyIgeDE9IjEwMzkiIHgyPSIxMTk2IiB5MT0iMjQ0LjUiIHkyPSIyNDQuNSIvPjxlbGxpcHNlIGN4PSIxMDQ5IiBjeT0iMjU3LjQ5MjIiIGZpbGw9Im5vbmUiIHJ4PSIzIiByeT0iMyIgc3R5bGU9InN0cm9rZTojMDM4MDQ4O3N0cm9rZS13aWR0aDoxOyIvPjx0ZXh0IGZpbGw9IiMwMDAwMDAiIGZvbnQtZmFtaWx5PSJzYW5zLXNlcmlmIiBmb250LXNpemU9IjE0IiBsZW5ndGhBZGp1c3Q9InNwYWNpbmciIHRleHRMZW5ndGg9IjkxIiB4PSIxMDU4IiB5PSIyNjEuNzM0NCI+aWQgOiBJTlQgJiMxNzE7UEsmIzE4Nzs8L3RleHQ+PGVsbGlwc2UgY3g9IjEwNDkiIGN5PSIyNzIuNDc2NiIgZmlsbD0ibm9uZSIgcng9IjMiIHJ5PSIzIiBzdHlsZT0ic3Ryb2tlOiMwMzgwNDg7c3Ryb2tlLXdpZHRoOjE7Ii8+PHRleHQgZmlsbD0iIzAwMDAwMCIgZm9udC1mYW1pbHk9InNhbnMtc2VyaWYiIGZvbnQtc2l6ZT0iMTQiIGxlbmd0aEFkanVzdD0ic3BhY2luZyIgdGV4dExlbmd0aD0iMTA1IiB4PSIxMDU4IiB5PSIyNzYuNzE4OCI+dGl0bGUgOiBWQVJDSEFSPC90ZXh0PjxlbGxpcHNlIGN4PSIxMDQ5IiBjeT0iMjg3LjQ2MDkiIGZpbGw9Im5vbmUiIHJ4PSIzIiByeT0iMyIgc3R5bGU9InN0cm9rZTojMDM4MDQ4O3N0cm9rZS13aWR0aDoxOyIvPjx0ZXh0IGZpbGw9IiMwMDAwMDAiIGZvbnQtZmFtaWx5PSJzYW5zLXNlcmlmIiBmb250LXNpemU9IjE0IiBsZW5ndGhBZGp1c3Q9InNwYWNpbmciIHRleHRMZW5ndGg9Ijk4IiB4PSIxMDU4IiB5PSIyOTEuNzAzMSI+Y29udGVudCA6IFRFWFQ8L3RleHQ+PGVsbGlwc2UgY3g9IjEwNDkiIGN5PSIzMDIuNDQ1MyIgZmlsbD0ibm9uZSIgcng9IjMiIHJ5PSIzIiBzdHlsZT0ic3Ryb2tlOiMwMzgwNDg7c3Ryb2tlLXdpZHRoOjE7Ii8+PHRleHQgZmlsbD0iIzAwMDAwMCIgZm9udC1mYW1pbHk9InNhbnMtc2VyaWYiIGZvbnQtc2l6ZT0iMTQiIGxlbmd0aEFkanVzdD0ic3BhY2luZyIgdGV4dExlbmd0aD0iMTMzIiB4PSIxMDU4IiB5PSIzMDYuNjg3NSI+cHVibGlzaF9kYXRlIDogREFURTwvdGV4dD48bGluZSBzdHlsZT0ic3Ryb2tlOiMxODE4MTg7c3Ryb2tlLXdpZHRoOjAuNTsiIHgxPSIxMDM5IiB4Mj0iMTE5NiIgeTE9IjMxMi40Mzc1IiB5Mj0iMzEyLjQzNzUiLz48L2c+PCEtLWNsYXNzIEZBUS0tPjxnIGNsYXNzPSJlbnRpdHkiIGRhdGEtZW50aXR5PSJGQVEiIGRhdGEtc291cmNlLWxpbmU9IjU2IiBkYXRhLXVpZD0iZW50MDAwOSIgaWQ9ImVudGl0eV9GQVEiPjxyZWN0IGZpbGw9IiNGMUYxRjEiIGhlaWdodD0iMTA3LjkzNzUiIHJ4PSIyLjUiIHJ5PSIyLjUiIHN0eWxlPSJzdHJva2U6IzE4MTgxODtzdHJva2Utd2lkdGg6MC41OyIgd2lkdGg9IjE3MyIgeD0iMTIzMiIgeT0iMjEyLjUiLz48ZWxsaXBzZSBjeD0iMTMwMy43NSIgY3k9IjIyOC41IiBmaWxsPSIjQUREMUIyIiByeD0iMTEiIHJ5PSIxMSIgc3R5bGU9InN0cm9rZTojMTgxODE4O3N0cm9rZS13aWR0aDoxOyIvPjxwYXRoIGQ9Ik0xMzA3LjM3NSwyMzQuNSBMMTMwNy4zNzUsMjMyLjc1IEwxMzAyLjA2MjUsMjMyLjc1IFExMzAyLjA2MjUsMjMyLjc1IDEzMDIuMDYyNSwyMjkuMTg3NSBMMTMwNi4zMTI1LDIyOS4xODc1IEwxMzA2LjMxMjUsMjI3LjQzNzUgTDEzMDIuMDYyNSwyMjcuNDM3NSBMMTMwMi4wNjI1LDIyNC45Mzc1IEwxMzA3LjM3NSwyMjQuOTM3NSBMMTMwNy4zNzUsMjIzLjE4NzUgTDEzMDAuMzEyNSwyMjMuMTg3NSBRMTMwMC4zMTI1LDIyMy4xODc1IDEzMDAuMzEyNSwyMzQuNSBMMTMwNy4zNzUsMjM0LjUgWiAiIGZpbGw9IiMwMDAwMDAiLz48dGV4dCBmaWxsPSIjMDAwMDAwIiBmb250LWZhbWlseT0ic2Fucy1zZXJpZiIgZm9udC1zaXplPSIxNCIgbGVuZ3RoQWRqdXN0PSJzcGFjaW5nIiB0ZXh0TGVuZ3RoPSIyMSIgeD0iMTMyNC4yNSIgeT0iMjM0LjI0MjIiPkZBUTwvdGV4dD48bGluZSBzdHlsZT0ic3Ryb2tlOiMxODE4MTg7c3Ryb2tlLXdpZHRoOjAuNTsiIHgxPSIxMjMzIiB4Mj0iMTQwNCIgeTE9IjI0NC41IiB5Mj0iMjQ0LjUiLz48ZWxsaXBzZSBjeD0iMTI0MyIgY3k9IjI1Ny40OTIyIiBmaWxsPSJub25lIiByeD0iMyIgcnk9IjMiIHN0eWxlPSJzdHJva2U6IzAzODA0ODtzdHJva2Utd2lkdGg6MTsiLz48dGV4dCBmaWxsPSIjMDAwMDAwIiBmb250LWZhbWlseT0ic2Fucy1zZXJpZiIgZm9udC1zaXplPSIxNCIgbGVuZ3RoQWRqdXN0PSJzcGFjaW5nIiB0ZXh0TGVuZ3RoPSI5MSIgeD0iMTI1MiIgeT0iMjYxLjczNDQiPmlkIDogSU5UICYjMTcxO1BLJiMxODc7PC90ZXh0PjxlbGxpcHNlIGN4PSIxMjQzIiBjeT0iMjcyLjQ3NjYiIGZpbGw9Im5vbmUiIHJ4PSIzIiByeT0iMyIgc3R5bGU9InN0cm9rZTojMDM4MDQ4O3N0cm9rZS13aWR0aDoxOyIvPjx0ZXh0IGZpbGw9IiMwMDAwMDAiIGZvbnQtZmFtaWx5PSJzYW5zLXNlcmlmIiBmb250LXNpemU9IjE0IiBsZW5ndGhBZGp1c3Q9InNwYWNpbmciIHRleHRMZW5ndGg9IjEwNSIgeD0iMTI1MiIgeT0iMjc2LjcxODgiPnF1ZXN0aW9uIDogVEVYVDwvdGV4dD48ZWxsaXBzZSBjeD0iMTI0MyIgY3k9IjI4Ny40NjA5IiBmaWxsPSJub25lIiByeD0iMyIgcnk9IjMiIHN0eWxlPSJzdHJva2U6IzAzODA0ODtzdHJva2Utd2lkdGg6MTsiLz48dGV4dCBmaWxsPSIjMDAwMDAwIiBmb250LWZhbWlseT0ic2Fucy1zZXJpZiIgZm9udC1zaXplPSIxNCIgbGVuZ3RoQWRqdXN0PSJzcGFjaW5nIiB0ZXh0TGVuZ3RoPSI5MSIgeD0iMTI1MiIgeT0iMjkxLjcwMzEiPmFuc3dlciA6IFRFWFQ8L3RleHQ+PGVsbGlwc2UgY3g9IjEyNDMiIGN5PSIzMDIuNDQ1MyIgZmlsbD0ibm9uZSIgcng9IjMiIHJ5PSIzIiBzdHlsZT0ic3Ryb2tlOiMwMzgwNDg7c3Ryb2tlLXdpZHRoOjE7Ii8+PHRleHQgZmlsbD0iIzAwMDAwMCIgZm9udC1mYW1pbHk9InNhbnMtc2VyaWYiIGZvbnQtc2l6ZT0iMTQiIGxlbmd0aEFkanVzdD0ic3BhY2luZyIgdGV4dExlbmd0aD0iMTQ3IiB4PSIxMjUyIiB5PSIzMDYuNjg3NSI+Y3JlYXRlZF9hdCA6IERBVEVUSU1FPC90ZXh0PjxsaW5lIHN0eWxlPSJzdHJva2U6IzE4MTgxODtzdHJva2Utd2lkdGg6MC41OyIgeDE9IjEyMzMiIHgyPSIxNDA0IiB5MT0iMzEyLjQzNzUiIHkyPSIzMTIuNDM3NSIvPjwvZz48IS0tY2xhc3MgQ29udGFjdC0tPjxnIGNsYXNzPSJlbnRpdHkiIGRhdGEtZW50aXR5PSJDb250YWN0IiBkYXRhLXNvdXJjZS1saW5lPSI2MyIgZGF0YS11aWQ9ImVudDAwMTAiIGlkPSJlbnRpdHlfQ29udGFjdCI+PHJlY3QgZmlsbD0iI0YxRjFGMSIgaGVpZ2h0PSIxMjIuOTIxOSIgcng9IjIuNSIgcnk9IjIuNSIgc3R5bGU9InN0cm9rZTojMTgxODE4O3N0cm9rZS13aWR0aDowLjU7IiB3aWR0aD0iMTg3IiB4PSI1ODAiIHk9IjIwNSIvPjxlbGxpcHNlIGN4PSI2NDQuNzUiIGN5PSIyMjEiIGZpbGw9IiNBREQxQjIiIHJ4PSIxMSIgcnk9IjExIiBzdHlsZT0ic3Ryb2tlOiMxODE4MTg7c3Ryb2tlLXdpZHRoOjE7Ii8+PHBhdGggZD0iTTY0OC4zNzUsMjI3IEw2NDguMzc1LDIyNS4yNSBMNjQzLjA2MjUsMjI1LjI1IFE2NDMuMDYyNSwyMjUuMjUgNjQzLjA2MjUsMjIxLjY4NzUgTDY0Ny4zMTI1LDIyMS42ODc1IEw2NDcuMzEyNSwyMTkuOTM3NSBMNjQzLjA2MjUsMjE5LjkzNzUgTDY0My4wNjI1LDIxNy40Mzc1IEw2NDguMzc1LDIxNy40Mzc1IEw2NDguMzc1LDIxNS42ODc1IEw2NDEuMzEyNSwyMTUuNjg3NSBRNjQxLjMxMjUsMjE1LjY4NzUgNjQxLjMxMjUsMjI3IEw2NDguMzc1LDIyNyBaICIgZmlsbD0iIzAwMDAwMCIvPjx0ZXh0IGZpbGw9IiMwMDAwMDAiIGZvbnQtZmFtaWx5PSJzYW5zLXNlcmlmIiBmb250LXNpemU9IjE0IiBsZW5ndGhBZGp1c3Q9InNwYWNpbmciIHRleHRMZW5ndGg9IjQ5IiB4PSI2NjUuMjUiIHk9IjIyNi43NDIyIj5Db250YWN0PC90ZXh0PjxsaW5lIHN0eWxlPSJzdHJva2U6IzE4MTgxODtzdHJva2Utd2lkdGg6MC41OyIgeDE9IjU4MSIgeDI9Ijc2NiIgeTE9IjIzNyIgeTI9IjIzNyIvPjxlbGxpcHNlIGN4PSI1OTEiIGN5PSIyNDkuOTkyMiIgZmlsbD0ibm9uZSIgcng9IjMiIHJ5PSIzIiBzdHlsZT0ic3Ryb2tlOiMwMzgwNDg7c3Ryb2tlLXdpZHRoOjE7Ii8+PHRleHQgZmlsbD0iIzAwMDAwMCIgZm9udC1mYW1pbHk9InNhbnMtc2VyaWYiIGZvbnQtc2l6ZT0iMTQiIGxlbmd0aEFkanVzdD0ic3BhY2luZyIgdGV4dExlbmd0aD0iOTEiIHg9IjYwMCIgeT0iMjU0LjIzNDQiPmlkIDogSU5UICYjMTcxO1BLJiMxODc7PC90ZXh0PjxlbGxpcHNlIGN4PSI1OTEiIGN5PSIyNjQuOTc2NiIgZmlsbD0ibm9uZSIgcng9IjMiIHJ5PSIzIiBzdHlsZT0ic3Ryb2tlOiMwMzgwNDg7c3Ryb2tlLXdpZHRoOjE7Ii8+PHRleHQgZmlsbD0iIzAwMDAwMCIgZm9udC1mYW1pbHk9InNhbnMtc2VyaWYiIGZvbnQtc2l6ZT0iMTQiIGxlbmd0aEFkanVzdD0ic3BhY2luZyIgdGV4dExlbmd0aD0iMTI2IiB4PSI2MDAiIHk9IjI2OS4yMTg4Ij51c2VyX2lkIDogSU5UICYjMTcxO0ZLJiMxODc7PC90ZXh0PjxlbGxpcHNlIGN4PSI1OTEiIGN5PSIyNzkuOTYwOSIgZmlsbD0ibm9uZSIgcng9IjMiIHJ5PSIzIiBzdHlsZT0ic3Ryb2tlOiMwMzgwNDg7c3Ryb2tlLXdpZHRoOjE7Ii8+PHRleHQgZmlsbD0iIzAwMDAwMCIgZm9udC1mYW1pbHk9InNhbnMtc2VyaWYiIGZvbnQtc2l6ZT0iMTQiIGxlbmd0aEFkanVzdD0ic3BhY2luZyIgdGV4dExlbmd0aD0iOTgiIHg9IjYwMCIgeT0iMjg0LjIwMzEiPm1lc3NhZ2UgOiBURVhUPC90ZXh0PjxlbGxpcHNlIGN4PSI1OTEiIGN5PSIyOTQuOTQ1MyIgZmlsbD0ibm9uZSIgcng9IjMiIHJ5PSIzIiBzdHlsZT0ic3Ryb2tlOiMwMzgwNDg7c3Ryb2tlLXdpZHRoOjE7Ii8+PHRleHQgZmlsbD0iIzAwMDAwMCIgZm9udC1mYW1pbHk9InNhbnMtc2VyaWYiIGZvbnQtc2l6ZT0iMTQiIGxlbmd0aEFkanVzdD0ic3BhY2luZyIgdGV4dExlbmd0aD0iMTA1IiB4PSI2MDAiIHk9IjI5OS4xODc1Ij5yZXNwb25zZSA6IFRFWFQ8L3RleHQ+PGVsbGlwc2UgY3g9IjU5MSIgY3k9IjMwOS45Mjk3IiBmaWxsPSJub25lIiByeD0iMyIgcnk9IjMiIHN0eWxlPSJzdHJva2U6IzAzODA0ODtzdHJva2Utd2lkdGg6MTsiLz48dGV4dCBmaWxsPSIjMDAwMDAwIiBmb250LWZhbWlseT0ic2Fucy1zZXJpZiIgZm9udC1zaXplPSIxNCIgbGVuZ3RoQWRqdXN0PSJzcGFjaW5nIiB0ZXh0TGVuZ3RoPSIxNjEiIHg9IjYwMCIgeT0iMzE0LjE3MTkiPmNvbnRhY3RfZGF0ZSA6IERBVEVUSU1FPC90ZXh0PjxsaW5lIHN0eWxlPSJzdHJva2U6IzE4MTgxODtzdHJva2Utd2lkdGg6MC41OyIgeDE9IjU4MSIgeDI9Ijc2NiIgeTE9IjMxOS45MjE5IiB5Mj0iMzE5LjkyMTkiLz48L2c+PCEtLWNsYXNzIFJlZ2lzdHJhdGlvbkd1aWRlLS0+PGcgY2xhc3M9ImVudGl0eSIgZGF0YS1lbnRpdHk9IlJlZ2lzdHJhdGlvbkd1aWRlIiBkYXRhLXNvdXJjZS1saW5lPSI3MSIgZGF0YS11aWQ9ImVudDAwMTEiIGlkPSJlbnRpdHlfUmVnaXN0cmF0aW9uR3VpZGUiPjxyZWN0IGZpbGw9IiNGMUYxRjEiIGhlaWdodD0iMTA3LjkzNzUiIHJ4PSIyLjUiIHJ5PSIyLjUiIHN0eWxlPSJzdHJva2U6IzE4MTgxODtzdHJva2Utd2lkdGg6MC41OyIgd2lkdGg9IjE4NyIgeD0iMTQ0MCIgeT0iMjEyLjUiLz48ZWxsaXBzZSBjeD0iMTQ3MS4yIiBjeT0iMjI4LjUiIGZpbGw9IiNBREQxQjIiIHJ4PSIxMSIgcnk9IjExIiBzdHlsZT0ic3Ryb2tlOiMxODE4MTg7c3Ryb2tlLXdpZHRoOjE7Ii8+PHBhdGggZD0iTTE0NzQuODI1LDIzNC41IEwxNDc0LjgyNSwyMzIuNzUgTDE0NjkuNTEyNSwyMzIuNzUgUTE0NjkuNTEyNSwyMzIuNzUgMTQ2OS41MTI1LDIyOS4xODc1IEwxNDczLjc2MjUsMjI5LjE4NzUgTDE0NzMuNzYyNSwyMjcuNDM3NSBMMTQ2OS41MTI1LDIyNy40Mzc1IEwxNDY5LjUxMjUsMjI0LjkzNzUgTDE0NzQuODI1LDIyNC45Mzc1IEwxNDc0LjgyNSwyMjMuMTg3NSBMMTQ2Ny43NjI1LDIyMy4xODc1IFExNDY3Ljc2MjUsMjIzLjE4NzUgMTQ2Ny43NjI1LDIzNC41IEwxNDc0LjgyNSwyMzQuNSBaICIgZmlsbD0iIzAwMDAwMCIvPjx0ZXh0IGZpbGw9IiMwMDAwMDAiIGZvbnQtZmFtaWx5PSJzYW5zLXNlcmlmIiBmb250LXNpemU9IjE0IiBsZW5ndGhBZGp1c3Q9InNwYWNpbmciIHRleHRMZW5ndGg9IjExOSIgeD0iMTQ4OC44IiB5PSIyMzQuMjQyMiI+UmVnaXN0cmF0aW9uR3VpZGU8L3RleHQ+PGxpbmUgc3R5bGU9InN0cm9rZTojMTgxODE4O3N0cm9rZS13aWR0aDowLjU7IiB4MT0iMTQ0MSIgeDI9IjE2MjYiIHkxPSIyNDQuNSIgeTI9IjI0NC41Ii8+PGVsbGlwc2UgY3g9IjE0NTEiIGN5PSIyNTcuNDkyMiIgZmlsbD0ibm9uZSIgcng9IjMiIHJ5PSIzIiBzdHlsZT0ic3Ryb2tlOiMwMzgwNDg7c3Ryb2tlLXdpZHRoOjE7Ii8+PHRleHQgZmlsbD0iIzAwMDAwMCIgZm9udC1mYW1pbHk9InNhbnMtc2VyaWYiIGZvbnQtc2l6ZT0iMTQiIGxlbmd0aEFkanVzdD0ic3BhY2luZyIgdGV4dExlbmd0aD0iOTEiIHg9IjE0NjAiIHk9IjI2MS43MzQ0Ij5pZCA6IElOVCAmIzE3MTtQSyYjMTg3OzwvdGV4dD48ZWxsaXBzZSBjeD0iMTQ1MSIgY3k9IjI3Mi40NzY2IiBmaWxsPSJub25lIiByeD0iMyIgcnk9IjMiIHN0eWxlPSJzdHJva2U6IzAzODA0ODtzdHJva2Utd2lkdGg6MTsiLz48dGV4dCBmaWxsPSIjMDAwMDAwIiBmb250LWZhbWlseT0ic2Fucy1zZXJpZiIgZm9udC1zaXplPSIxNCIgbGVuZ3RoQWRqdXN0PSJzcGFjaW5nIiB0ZXh0TGVuZ3RoPSIxMDUiIHg9IjE0NjAiIHk9IjI3Ni43MTg4Ij50aXRsZSA6IFZBUkNIQVI8L3RleHQ+PGVsbGlwc2UgY3g9IjE0NTEiIGN5PSIyODcuNDYwOSIgZmlsbD0ibm9uZSIgcng9IjMiIHJ5PSIzIiBzdHlsZT0ic3Ryb2tlOiMwMzgwNDg7c3Ryb2tlLXdpZHRoOjE7Ii8+PHRleHQgZmlsbD0iIzAwMDAwMCIgZm9udC1mYW1pbHk9InNhbnMtc2VyaWYiIGZvbnQtc2l6ZT0iMTQiIGxlbmd0aEFkanVzdD0ic3BhY2luZyIgdGV4dExlbmd0aD0iOTgiIHg9IjE0NjAiIHk9IjI5MS43MDMxIj5jb250ZW50IDogVEVYVDwvdGV4dD48ZWxsaXBzZSBjeD0iMTQ1MSIgY3k9IjMwMi40NDUzIiBmaWxsPSJub25lIiByeD0iMyIgcnk9IjMiIHN0eWxlPSJzdHJva2U6IzAzODA0ODtzdHJva2Utd2lkdGg6MTsiLz48dGV4dCBmaWxsPSIjMDAwMDAwIiBmb250LWZhbWlseT0ic2Fucy1zZXJpZiIgZm9udC1zaXplPSIxNCIgbGVuZ3RoQWRqdXN0PSJzcGFjaW5nIiB0ZXh0TGVuZ3RoPSIxNjEiIHg9IjE0NjAiIHk9IjMwNi42ODc1Ij5sYXN0X3VwZGF0ZWQgOiBEQVRFVElNRTwvdGV4dD48bGluZSBzdHlsZT0ic3Ryb2tlOiMxODE4MTg7c3Ryb2tlLXdpZHRoOjAuNTsiIHgxPSIxNDQxIiB4Mj0iMTYyNiIgeTE9IjMxMi40Mzc1IiB5Mj0iMzEyLjQzNzUiLz48L2c+PCEtLWNsYXNzIEFwcGxpY2F0aW9uUmVzdWx0LS0+PGcgY2xhc3M9ImVudGl0eSIgZGF0YS1lbnRpdHk9IkFwcGxpY2F0aW9uUmVzdWx0IiBkYXRhLXNvdXJjZS1saW5lPSI3OCIgZGF0YS11aWQ9ImVudDAwMTIiIGlkPSJlbnRpdHlfQXBwbGljYXRpb25SZXN1bHQiPjxyZWN0IGZpbGw9IiNGMUYxRjEiIGhlaWdodD0iMTA3LjkzNzUiIHJ4PSIyLjUiIHJ5PSIyLjUiIHN0eWxlPSJzdHJva2U6IzE4MTgxODtzdHJva2Utd2lkdGg6MC41OyIgd2lkdGg9IjIwMSIgeD0iODAyIiB5PSIyMTIuNSIvPjxlbGxpcHNlIGN4PSI4MzkuNSIgY3k9IjIyOC41IiBmaWxsPSIjQUREMUIyIiByeD0iMTEiIHJ5PSIxMSIgc3R5bGU9InN0cm9rZTojMTgxODE4O3N0cm9rZS13aWR0aDoxOyIvPjxwYXRoIGQ9Ik04NDMuMTI1LDIzNC41IEw4NDMuMTI1LDIzMi43NSBMODM3LjgxMjUsMjMyLjc1IFE4MzcuODEyNSwyMzIuNzUgODM3LjgxMjUsMjI5LjE4NzUgTDg0Mi4wNjI1LDIyOS4xODc1IEw4NDIuMDYyNSwyMjcuNDM3NSBMODM3LjgxMjUsMjI3LjQzNzUgTDgzNy44MTI1LDIyNC45Mzc1IEw4NDMuMTI1LDIyNC45Mzc1IEw4NDMuMTI1LDIyMy4xODc1IEw4MzYuMDYyNSwyMjMuMTg3NSBRODM2LjA2MjUsMjIzLjE4NzUgODM2LjA2MjUsMjM0LjUgTDg0My4xMjUsMjM0LjUgWiAiIGZpbGw9IiMwMDAwMDAiLz48dGV4dCBmaWxsPSIjMDAwMDAwIiBmb250LWZhbWlseT0ic2Fucy1zZXJpZiIgZm9udC1zaXplPSIxNCIgbGVuZ3RoQWRqdXN0PSJzcGFjaW5nIiB0ZXh0TGVuZ3RoPSIxMTkiIHg9Ijg1OC41IiB5PSIyMzQuMjQyMiI+QXBwbGljYXRpb25SZXN1bHQ8L3RleHQ+PGxpbmUgc3R5bGU9InN0cm9rZTojMTgxODE4O3N0cm9rZS13aWR0aDowLjU7IiB4MT0iODAzIiB4Mj0iMTAwMiIgeTE9IjI0NC41IiB5Mj0iMjQ0LjUiLz48ZWxsaXBzZSBjeD0iODEzIiBjeT0iMjU3LjQ5MjIiIGZpbGw9Im5vbmUiIHJ4PSIzIiByeT0iMyIgc3R5bGU9InN0cm9rZTojMDM4MDQ4O3N0cm9rZS13aWR0aDoxOyIvPjx0ZXh0IGZpbGw9IiMwMDAwMDAiIGZvbnQtZmFtaWx5PSJzYW5zLXNlcmlmIiBmb250LXNpemU9IjE0IiBsZW5ndGhBZGp1c3Q9InNwYWNpbmciIHRleHRMZW5ndGg9IjkxIiB4PSI4MjIiIHk9IjI2MS43MzQ0Ij5pZCA6IElOVCAmIzE3MTtQSyYjMTg3OzwvdGV4dD48ZWxsaXBzZSBjeD0iODEzIiBjeT0iMjcyLjQ3NjYiIGZpbGw9Im5vbmUiIHJ4PSIzIiByeT0iMyIgc3R5bGU9InN0cm9rZTojMDM4MDQ4O3N0cm9rZS13aWR0aDoxOyIvPjx0ZXh0IGZpbGw9IiMwMDAwMDAiIGZvbnQtZmFtaWx5PSJzYW5zLXNlcmlmIiBmb250LXNpemU9IjE0IiBsZW5ndGhBZGp1c3Q9InNwYWNpbmciIHRleHRMZW5ndGg9IjE3NSIgeD0iODIyIiB5PSIyNzYuNzE4OCI+YXBwbGljYXRpb25faWQgOiBJTlQgJiMxNzE7RksmIzE4Nzs8L3RleHQ+PGVsbGlwc2UgY3g9IjgxMyIgY3k9IjI4Ny40NjA5IiBmaWxsPSJub25lIiByeD0iMyIgcnk9IjMiIHN0eWxlPSJzdHJva2U6IzAzODA0ODtzdHJva2Utd2lkdGg6MTsiLz48dGV4dCBmaWxsPSIjMDAwMDAwIiBmb250LWZhbWlseT0ic2Fucy1zZXJpZiIgZm9udC1zaXplPSIxNCIgbGVuZ3RoQWRqdXN0PSJzcGFjaW5nIiB0ZXh0TGVuZ3RoPSIxNjEiIHg9IjgyMiIgeT0iMjkxLjcwMzEiPnJlc3VsdF9zdGF0dXMgOiBWQVJDSEFSPC90ZXh0PjxlbGxpcHNlIGN4PSI4MTMiIGN5PSIzMDIuNDQ1MyIgZmlsbD0ibm9uZSIgcng9IjMiIHJ5PSIzIiBzdHlsZT0ic3Ryb2tlOiMwMzgwNDg7c3Ryb2tlLXdpZHRoOjE7Ii8+PHRleHQgZmlsbD0iIzAwMDAwMCIgZm9udC1mYW1pbHk9InNhbnMtc2VyaWYiIGZvbnQtc2l6ZT0iMTQiIGxlbmd0aEFkanVzdD0ic3BhY2luZyIgdGV4dExlbmd0aD0iMTQwIiB4PSI4MjIiIHk9IjMwNi42ODc1Ij5kZWNpc2lvbl9kYXRlIDogREFURTwvdGV4dD48bGluZSBzdHlsZT0ic3Ryb2tlOiMxODE4MTg7c3Ryb2tlLXdpZHRoOjAuNTsiIHgxPSI4MDMiIHgyPSIxMDAyIiB5MT0iMzEyLjQzNzUiIHkyPSIzMTIuNDM3NSIvPjwvZz48IS0tbGluayBVc2VyIHRvIEFwcGxpY2F0aW9uLS0+PGcgY2xhc3M9ImxpbmsiIGRhdGEtZW50aXR5LTE9IlVzZXIiIGRhdGEtZW50aXR5LTI9IkFwcGxpY2F0aW9uIiBkYXRhLXNvdXJjZS1saW5lPSI4NSIgZGF0YS11aWQ9ImxuazEzIiBpZD0ibGlua19Vc2VyX0FwcGxpY2F0aW9uIj48cGF0aCBjb2RlTGluZT0iODUiIGQ9Ik00ODQuMTM2MSwxMTEuMTA3NCBDNDU0Ljg2NjEsMTI2LjQ2NzQgNDI4LjYyLDE0MS4yNyAzOTkuNSwxNjAgQzM3OC4yMywxNzMuNjkgMzYyLjQxODgsMTg0Ljg0MTggMzQyLjE3ODgsMjAwLjE2MTgiIGZpbGw9Im5vbmUiIGlkPSJVc2VyLUFwcGxpY2F0aW9uIiBzdHlsZT0ic3Ryb2tlOiMxODE4MTg7c3Ryb2tlLXdpZHRoOjE7Ii8+PGxpbmUgc3R5bGU9InN0cm9rZTojMTgxODE4O3N0cm9rZS13aWR0aDoxOyIgeDE9IjQ4NS44MTk0IiB4Mj0iNDg5LjUzNjgiIHkxPSIxMDUuNzA2OCIgeTI9IjExMi43OTA2Ii8+PGxpbmUgc3R5bGU9InN0cm9rZTojMTgxODE4O3N0cm9rZS13aWR0aDoxOyIgeDE9IjQ4My4xNjI5IiB4Mj0iNDg2Ljg4MDMiIHkxPSIxMDcuMTAwOCIgeTI9IjExNC4xODQ2Ii8+PGxpbmUgc3R5bGU9InN0cm9rZTojMTgxODE4O3N0cm9rZS13aWR0aDoxOyIgeDE9IjQ4NC4xMzYxIiB4Mj0iNDkxLjIyIiB5MT0iMTExLjEwNzQiIHkyPSIxMDcuMzkiLz48bGluZSBzdHlsZT0ic3Ryb2tlOiMxODE4MTg7c3Ryb2tlLXdpZHRoOjE7IiB4MT0iMzQyLjE3ODgiIHgyPSIzMzkuNDIxMSIgeTE9IjIwMC4xNjE4IiB5Mj0iMjA5Ljc3NDEiLz48bGluZSBzdHlsZT0ic3Ryb2tlOiMxODE4MTg7c3Ryb2tlLXdpZHRoOjE7IiB4MT0iMzQyLjE3ODgiIHgyPSIzMzIuMTc4OSIgeTE9IjIwMC4xNjE4IiB5Mj0iMjAwLjIwNTkiLz48bGluZSBzdHlsZT0ic3Ryb2tlOiMxODE4MTg7c3Ryb2tlLXdpZHRoOjE7IiB4MT0iMzQyLjE3ODgiIHgyPSIzMzUuOCIgeTE9IjIwMC4xNjE4IiB5Mj0iMjA0Ljk5Ii8+PGxpbmUgc3R5bGU9InN0cm9rZTojMTgxODE4O3N0cm9rZS13aWR0aDoxOyIgeDE9IjM0Ni4xODc1IiB4Mj0iMzQxLjM1OTQiIHkxPSIyMDIuMTQ0MSIgeTI9IjE5NS43NjU0Ii8+PHRleHQgZmlsbD0iIzAwMDAwMCIgZm9udC1mYW1pbHk9InNhbnMtc2VyaWYiIGZvbnQtc2l6ZT0iMTMiIGxlbmd0aEFkanVzdD0ic3BhY2luZyIgdGV4dExlbmd0aD0iNjUiIHg9IjQwMC41IiB5PSIxNzMuMjg5MSI+YyYjMjQzOyB0aCYjNzg3NTsgbiYjNzg5NztwPC90ZXh0PjwvZz48IS0tbGluayBBcHBsaWNhdGlvbiB0byBDb3Vyc2UtLT48ZyBjbGFzcz0ibGluayIgZGF0YS1lbnRpdHktMT0iQXBwbGljYXRpb24iIGRhdGEtZW50aXR5LTI9IkNvdXJzZSIgZGF0YS1zb3VyY2UtbGluZT0iODYiIGRhdGEtdWlkPSJsbmsxNCIgaWQ9ImxpbmtfQXBwbGljYXRpb25fQ291cnNlIj48cGF0aCBjb2RlTGluZT0iODYiIGQ9Ik0yMjMuMTMwNCwzMzUuMDYxOSBDMjEwLjQ4MDQsMzU3Ljk1MTkgMjAzLjUyMTksMzcwLjUwOTQgMTg5LjY2MTksMzk1LjU2OTQiIGZpbGw9Im5vbmUiIGlkPSJBcHBsaWNhdGlvbi1Db3Vyc2UiIHN0eWxlPSJzdHJva2U6IzE4MTgxODtzdHJva2Utd2lkdGg6MTsiLz48bGluZSBzdHlsZT0ic3Ryb2tlOiMxODE4MTg7c3Ryb2tlLXdpZHRoOjE7IiB4MT0iMjIzLjEzMDQiIHgyPSIyMjEuNzQ4NiIgeTE9IjMzNS4wNjE5IiB5Mj0iMzI1LjE1NzgiLz48bGluZSBzdHlsZT0ic3Ryb2tlOiMxODE4MTg7c3Ryb2tlLXdpZHRoOjE7IiB4MT0iMjIzLjEzMDQiIHgyPSIyMzIuMjUxNCIgeTE9IjMzNS4wNjE5IiB5Mj0iMzMwLjk2MjIiLz48bGluZSBzdHlsZT0ic3Ryb2tlOiMxODE4MTg7c3Ryb2tlLXdpZHRoOjE7IiB4MT0iMjIzLjEzMDQiIHgyPSIyMjciIHkxPSIzMzUuMDYxOSIgeTI9IjMyOC4wNiIvPjxsaW5lIHN0eWxlPSJzdHJva2U6IzE4MTgxODtzdHJva2Utd2lkdGg6MTsiIHgxPSIyMTguNjYyMSIgeDI9IjIyNS42NjQiIHkxPSIzMzQuODc3NiIgeTI9IjMzOC43NDcxIi8+PGxpbmUgc3R5bGU9InN0cm9rZTojMTgxODE4O3N0cm9rZS13aWR0aDoxOyIgeDE9IjE5MS4yMjYyIiB4Mj0iMTg0LjIyNTYiIHkxPSI0MDEuMDA1NiIgeTI9IjM5Ny4xMzM4Ii8+PGxpbmUgc3R5bGU9InN0cm9rZTojMTgxODE4O3N0cm9rZS13aWR0aDoxOyIgeDE9IjE5Mi42NzgyIiB4Mj0iMTg1LjY3NzYiIHkxPSIzOTguMzgwNCIgeTI9IjM5NC41MDg1Ii8+PGxpbmUgc3R5bGU9InN0cm9rZTojMTgxODE4O3N0cm9rZS13aWR0aDoxOyIgeDE9IjE4OS42NjE5IiB4Mj0iMTg1Ljc5IiB5MT0iMzk1LjU2OTQiIHkyPSI0MDIuNTciLz48dGV4dCBmaWxsPSIjMDAwMDAwIiBmb250LWZhbWlseT0ic2Fucy1zZXJpZiIgZm9udC1zaXplPSIxMyIgbGVuZ3RoQWRqdXN0PSJzcGFjaW5nIiB0ZXh0TGVuZ3RoPSI3MS41IiB4PSIyMTAuNSIgeT0iMzcxLjI4OTEiPiYjMjczOyYjMjU5O25nIGsmIzI1MzsgdiYjMjI0O288L3RleHQ+PC9nPjwhLS1saW5rIEFwcGxpY2F0aW9uIHRvIEFkbWlzc2lvblN0YXR1cy0tPjxnIGNsYXNzPSJsaW5rIiBkYXRhLWVudGl0eS0xPSJBcHBsaWNhdGlvbiIgZGF0YS1lbnRpdHktMj0iQWRtaXNzaW9uU3RhdHVzIiBkYXRhLXNvdXJjZS1saW5lPSI4NyIgZGF0YS11aWQ9ImxuazE1IiBpZD0ibGlua19BcHBsaWNhdGlvbl9BZG1pc3Npb25TdGF0dXMiPjxwYXRoIGNvZGVMaW5lPSI4NyIgZD0iTTI5Ny44NzE2LDMzNS4wNjA3IEMzMjAuMjkxNiwzNzUuNjAwNyAzNDEuMzU3Nyw0MTMuNjg5NiAzNjAuNjA3Nyw0NDguNDg5NiIgZmlsbD0ibm9uZSIgaWQ9IkFwcGxpY2F0aW9uLUFkbWlzc2lvblN0YXR1cyIgc3R5bGU9InN0cm9rZTojMTgxODE4O3N0cm9rZS13aWR0aDoxOyIvPjxsaW5lIHN0eWxlPSJzdHJva2U6IzE4MTgxODtzdHJva2Utd2lkdGg6MTsiIHgxPSIyOTcuODcxNiIgeDI9IjI4OC43NDk0IiB5MT0iMzM1LjA2MDciIHkyPSIzMzAuOTYzNyIvPjxsaW5lIHN0eWxlPSJzdHJva2U6IzE4MTgxODtzdHJva2Utd2lkdGg6MTsiIHgxPSIyOTcuODcxNiIgeDI9IjI5OS4yNTA2IiB5MT0iMzM1LjA2MDciIHkyPSIzMjUuMTU2MyIvPjxsaW5lIHN0eWxlPSJzdHJva2U6IzE4MTgxODtzdHJva2Utd2lkdGg6MTsiIHgxPSIyOTcuODcxNiIgeDI9IjI5NCIgeTE9IjMzNS4wNjA3IiB5Mj0iMzI4LjA2Ii8+PGxpbmUgc3R5bGU9InN0cm9rZTojMTgxODE4O3N0cm9rZS13aWR0aDoxOyIgeDE9IjI5NS4zMzkyIiB4Mj0iMzAyLjMzOTkiIHkxPSIzMzguNzQ2NyIgeTI9IjMzNC44NzUxIi8+PGxpbmUgc3R5bGU9InN0cm9rZTojMTgxODE4O3N0cm9rZS13aWR0aDoxOyIgeDE9IjM2Ni4wNDQiIHgyPSIzNTkuMDQzNyIgeTE9IjQ1MC4wNTM3IiB5Mj0iNDUzLjkyNiIvPjxsaW5lIHN0eWxlPSJzdHJva2U6IzE4MTgxODtzdHJva2Utd2lkdGg6MTsiIHgxPSIzNjQuNTkxOSIgeDI9IjM1Ny41OTE1IiB5MT0iNDQ3LjQyODUiIHkyPSI0NTEuMzAwOCIvPjxsaW5lIHN0eWxlPSJzdHJva2U6IzE4MTgxODtzdHJva2Utd2lkdGg6MTsiIHgxPSIzNjAuNjA3NyIgeDI9IjM2NC40OCIgeTE9IjQ0OC40ODk2IiB5Mj0iNDU1LjQ5Ii8+PHRleHQgZmlsbD0iIzAwMDAwMCIgZm9udC1mYW1pbHk9InNhbnMtc2VyaWYiIGZvbnQtc2l6ZT0iMTMiIGxlbmd0aEFkanVzdD0ic3BhY2luZyIgdGV4dExlbmd0aD0iODQuNSIgeD0iMzE3LjUiIHk9IjM3MS4yODkxIj5jJiMyNDM7IHRyJiM3ODQxO25nIHRoJiMyMjU7aTwvdGV4dD48L2c+PCEtLWxpbmsgVXNlciB0byBDaGF0Ym90SW50ZXJhY3Rpb24tLT48ZyBjbGFzcz0ibGluayIgZGF0YS1lbnRpdHktMT0iVXNlciIgZGF0YS1lbnRpdHktMj0iQ2hhdGJvdEludGVyYWN0aW9uIiBkYXRhLXNvdXJjZS1saW5lPSI4OCIgZGF0YS11aWQ9ImxuazE2IiBpZD0ibGlua19Vc2VyX0NoYXRib3RJbnRlcmFjdGlvbiI+PHBhdGggY29kZUxpbmU9Ijg4IiBkPSJNNDk0LjMyNDgsMTM2LjM2MjIgQzQ4Ni42ODQ4LDE0NS43MDIyIDQ4NC44MSwxNDkuNTUgNDc5LjUsMTYwIEM0NzIuNTEsMTczLjc1IDQ2OS41NDU2LDE4MS43OTA5IDQ2Ni44NjU2LDE5Ny4wMzA5IiBmaWxsPSJub25lIiBpZD0iVXNlci1DaGF0Ym90SW50ZXJhY3Rpb24iIHN0eWxlPSJzdHJva2U6IzE4MTgxODtzdHJva2Utd2lkdGg6MTsiLz48bGluZSBzdHlsZT0ic3Ryb2tlOiMxODE4MTg7c3Ryb2tlLXdpZHRoOjE7IiB4MT0iNDkzLjc2MTMiIHgyPSI0OTkuOTUzNSIgeTE9IjEzMC43MzM1IiB5Mj0iMTM1Ljc5ODciLz48bGluZSBzdHlsZT0ic3Ryb2tlOiMxODE4MTg7c3Ryb2tlLXdpZHRoOjE7IiB4MT0iNDkxLjg2MTgiIHgyPSI0OTguMDU0MSIgeTE9IjEzMy4wNTU2IiB5Mj0iMTM4LjEyMDgiLz48bGluZSBzdHlsZT0ic3Ryb2tlOiMxODE4MTg7c3Ryb2tlLXdpZHRoOjE7IiB4MT0iNDk0LjMyNDgiIHgyPSI0OTkuMzkiIHkxPSIxMzYuMzYyMiIgeTI9IjEzMC4xNyIvPjxsaW5lIHN0eWxlPSJzdHJva2U6IzE4MTgxODtzdHJva2Utd2lkdGg6MTsiIHgxPSI0NjYuODY1NiIgeDI9IjQ3MS4zODkzIiB5MT0iMTk3LjAzMDkiIHkyPSIyMDUuOTQ5MiIvPjxsaW5lIHN0eWxlPSJzdHJva2U6IzE4MTgxODtzdHJva2Utd2lkdGg6MTsiIHgxPSI0NjYuODY1NiIgeDI9IjQ1OS41NzA3IiB5MT0iMTk3LjAzMDkiIHkyPSIyMDMuODcwOCIvPjxsaW5lIHN0eWxlPSJzdHJva2U6IzE4MTgxODtzdHJva2Utd2lkdGg6MTsiIHgxPSI0NjYuODY1NiIgeDI9IjQ2NS40OCIgeTE9IjE5Ny4wMzA5IiB5Mj0iMjA0LjkxIi8+PGxpbmUgc3R5bGU9InN0cm9rZTojMTgxODE4O3N0cm9rZS13aWR0aDoxOyIgeDE9IjQ3MS4xNTE1IiB4Mj0iNDYzLjI3MjQiIHkxPSIxOTUuNzUzOSIgeTI9IjE5NC4zNjgzIi8+PHRleHQgZmlsbD0iIzAwMDAwMCIgZm9udC1mYW1pbHk9InNhbnMtc2VyaWYiIGZvbnQtc2l6ZT0iMTMiIGxlbmd0aEFkanVzdD0ic3BhY2luZyIgdGV4dExlbmd0aD0iMTQ5LjUiIHg9IjQ4MC41IiB5PSIxNzMuMjg5MSI+YyYjMjQzOyBuaGkmIzc4NzM7dSBjdSYjNzg5NztjIGgmIzc4OTc7aSB0aG8mIzc4NDE7aTwvdGV4dD48L2c+PCEtLWxpbmsgVXNlciB0byBDb250YWN0LS0+PGcgY2xhc3M9ImxpbmsiIGRhdGEtZW50aXR5LTE9IlVzZXIiIGRhdGEtZW50aXR5LTI9IkNvbnRhY3QiIGRhdGEtc291cmNlLWxpbmU9Ijg5IiBkYXRhLXVpZD0ibG5rMTciIGlkPSJsaW5rX1VzZXJfQ29udGFjdCI+PHBhdGggY29kZUxpbmU9Ijg5IiBkPSJNNjIwLjYwMDksMTM2Ljg1NjQgQzYyNy4yNjA5LDE0Ni41MTY0IDYyOS4xMSwxNTAuMDMgNjM0LjUsMTYwIEM2NDIuMDcsMTc0IDY0NS45NjMyLDE4Mi4yODg1IDY1MS41ODMyLDE5Ny4yODg1IiBmaWxsPSJub25lIiBpZD0iVXNlci1Db250YWN0IiBzdHlsZT0ic3Ryb2tlOiMxODE4MTg7c3Ryb2tlLXdpZHRoOjE7Ii8+PGxpbmUgc3R5bGU9InN0cm9rZTojMTgxODE4O3N0cm9rZS13aWR0aDoxOyIgeDE9IjYxNS4wMzczIiB4Mj0iNjIxLjYyMzYiIHkxPSIxMzUuODMzNiIgeTI9IjEzMS4yOTI3Ii8+PGxpbmUgc3R5bGU9InN0cm9rZTojMTgxODE4O3N0cm9rZS13aWR0aDoxOyIgeDE9IjYxNi43NDAxIiB4Mj0iNjIzLjMyNjUiIHkxPSIxMzguMzAzNSIgeTI9IjEzMy43NjI2Ii8+PGxpbmUgc3R5bGU9InN0cm9rZTojMTgxODE4O3N0cm9rZS13aWR0aDoxOyIgeDE9IjYyMC42MDA5IiB4Mj0iNjE2LjA2IiB5MT0iMTM2Ljg1NjQiIHkyPSIxMzAuMjciLz48bGluZSBzdHlsZT0ic3Ryb2tlOiMxODE4MTg7c3Ryb2tlLXdpZHRoOjE7IiB4MT0iNjUxLjU4MzIiIHgyPSI2NjAuMDA4NiIgeTE9IjE5Ny4yODg1IiB5Mj0iMjAyLjY3NDkiLz48bGluZSBzdHlsZT0ic3Ryb2tlOiMxODE4MTg7c3Ryb2tlLXdpZHRoOjE7IiB4MT0iNjUxLjU4MzIiIHgyPSI2NDguNzcxNCIgeTE9IjE5Ny4yODg1IiB5Mj0iMjA2Ljg4NTEiLz48bGluZSBzdHlsZT0ic3Ryb2tlOiMxODE4MTg7c3Ryb2tlLXdpZHRoOjE7IiB4MT0iNjUxLjU4MzIiIHgyPSI2NTQuMzkiIHkxPSIxOTcuMjg4NSIgeTI9IjIwNC43OCIvPjxsaW5lIHN0eWxlPSJzdHJva2U6IzE4MTgxODtzdHJva2Utd2lkdGg6MTsiIHgxPSI2NTQuNjI3MiIgeDI9IjY0Ny4xMzU4IiB5MT0iMTk0LjAxMjMiIHkyPSIxOTYuODE5MSIvPjx0ZXh0IGZpbGw9IiMwMDAwMDAiIGZvbnQtZmFtaWx5PSJzYW5zLXNlcmlmIiBmb250LXNpemU9IjEzIiBsZW5ndGhBZGp1c3Q9InNwYWNpbmciIHRleHRMZW5ndGg9IjExNyIgeD0iNjQyLjUiIHk9IjE3My4yODkxIj5jJiMyNDM7IHRoJiM3ODc1OyBnJiM3OTE3O2kgbGkmIzIzNDtuIGgmIzc4Nzk7PC90ZXh0PjwvZz48IS0tbGluayBVc2VyIHRvIEFwcGxpY2F0aW9uUmVzdWx0LS0+PGcgY2xhc3M9ImxpbmsiIGRhdGEtZW50aXR5LTE9IlVzZXIiIGRhdGEtZW50aXR5LTI9IkFwcGxpY2F0aW9uUmVzdWx0IiBkYXRhLXNvdXJjZS1saW5lPSI5MCIgZGF0YS11aWQ9ImxuazE4IiBpZD0ibGlua19Vc2VyX0FwcGxpY2F0aW9uUmVzdWx0Ij48cGF0aCBjb2RlTGluZT0iOTAiIGQ9Ik02NTEuMDY3OSwxMDEuNjk5IEM2ODkuNjA3OSwxMTcuNzA5IDcyOS4wNywxMzYuMDkgNzY4LjUsMTYwIEM3OTMuNTcsMTc1LjIgODEzLjA1NTYsMTg5LjM5NDQgODM1LjE3NTYsMjA3LjI1NDQiIGZpbGw9Im5vbmUiIGlkPSJVc2VyLUFwcGxpY2F0aW9uUmVzdWx0IiBzdHlsZT0ic3Ryb2tlOiMxODE4MTg7c3Ryb2tlLXdpZHRoOjE7Ii8+PGxpbmUgc3R5bGU9InN0cm9rZTojMTgxODE4O3N0cm9rZS13aWR0aDoxOyIgeDE9IjY0NS44Mzk0IiB4Mj0iNjQ4LjkwODUiIHkxPSIxMDMuODU4NSIgeTI9Ijk2LjQ3MDYiLz48bGluZSBzdHlsZT0ic3Ryb2tlOiMxODE4MTg7c3Ryb2tlLXdpZHRoOjE7IiB4MT0iNjQ4LjYwOTkiIHgyPSI2NTEuNjc4OSIgeTE9IjEwNS4wMDkzIiB5Mj0iOTcuNjIxNCIvPjxsaW5lIHN0eWxlPSJzdHJva2U6IzE4MTgxODtzdHJva2Utd2lkdGg6MTsiIHgxPSI2NTEuMDY3OSIgeDI9IjY0My42OCIgeTE9IjEwMS42OTkiIHkyPSI5OC42MyIvPjxsaW5lIHN0eWxlPSJzdHJva2U6IzE4MTgxODtzdHJva2Utd2lkdGg6MTsiIHgxPSI4MzUuMTc1NiIgeDI9Ijg0NS4xNjkyIiB5MT0iMjA3LjI1NDQiIHkyPSIyMDcuNjExNyIvPjxsaW5lIHN0eWxlPSJzdHJva2U6IzE4MTgxODtzdHJva2Utd2lkdGg6MTsiIHgxPSI4MzUuMTc1NiIgeDI9IjgzNy42MzA4IiB5MT0iMjA3LjI1NDQiIHkyPSIyMTYuOTQ4MyIvPjxsaW5lIHN0eWxlPSJzdHJva2U6IzE4MTgxODtzdHJva2Utd2lkdGg6MTsiIHgxPSI4MzUuMTc1NiIgeDI9Ijg0MS40IiB5MT0iMjA3LjI1NDQiIHkyPSIyMTIuMjgiLz48bGluZSBzdHlsZT0ic3Ryb2tlOiMxODE4MTg7c3Ryb2tlLXdpZHRoOjE7IiB4MT0iODM2LjEzMjQiIHgyPSI4MzEuMTA2NyIgeTE9IjIwMi44ODU4IiB5Mj0iMjA5LjExMDEiLz48dGV4dCBmaWxsPSIjMDAwMDAwIiBmb250LWZhbWlseT0ic2Fucy1zZXJpZiIgZm9udC1zaXplPSIxMyIgbGVuZ3RoQWRqdXN0PSJzcGFjaW5nIiB0ZXh0TGVuZ3RoPSIxNDMiIHg9Ijc4OS41IiB5PSIxNzMuMjg5MSI+bmgmIzc4NTM7biBrJiM3ODcxO3QgcXUmIzc4NDM7IHgmIzIzMzt0IHR1eSYjNzg3NTtuPC90ZXh0PjwvZz48IS0tbGluayBBZG1pbiB0byBOZXdzLS0+PGcgY2xhc3M9ImxpbmsiIGRhdGEtZW50aXR5LTE9IkFkbWluIiBkYXRhLWVudGl0eS0yPSJOZXdzIiBkYXRhLXNvdXJjZS1saW5lPSI5MSIgZGF0YS11aWQ9ImxuazE5IiBpZD0ibGlua19BZG1pbl9OZXdzIj48cGF0aCBjb2RlTGluZT0iOTEiIGQ9Ik0xMjQ2LjYyNTksMTI3LjgzNjMgQzEyMzIuNjk1OSwxMzkuNzc2MyAxMjI0LjM5LDE0Ny40MyAxMjExLjUsMTYwIEMxMTk0LjcyLDE3Ni4zNSAxMTgyLjY2OTUsMTg5LjE3ODIgMTE2Ny41MTk1LDIwNi4zNjgyIiBmaWxsPSJub25lIiBpZD0iQWRtaW4tTmV3cyIgc3R5bGU9InN0cm9rZTojMTgxODE4O3N0cm9rZS13aWR0aDoxOyIvPjxsaW5lIHN0eWxlPSJzdHJva2U6IzE4MTgxODtzdHJva2Utd2lkdGg6MTsiIHgxPSIxMjQ3LjA1OTgiIHgyPSIxMjUyLjI2NjEiIHkxPSIxMjIuMTk2MSIgeTI9IjEyOC4yNzAyIi8+PGxpbmUgc3R5bGU9InN0cm9rZTojMTgxODE4O3N0cm9rZS13aWR0aDoxOyIgeDE9IjEyNDQuNzgyIiB4Mj0iMTI0OS45ODg0IiB5MT0iMTI0LjE0ODUiIHkyPSIxMzAuMjIyNiIvPjxsaW5lIHN0eWxlPSJzdHJva2U6IzE4MTgxODtzdHJva2Utd2lkdGg6MTsiIHgxPSIxMjQ2LjYyNTkiIHgyPSIxMjUyLjciIHkxPSIxMjcuODM2MyIgeTI9IjEyMi42MyIvPjxsaW5lIHN0eWxlPSJzdHJva2U6IzE4MTgxODtzdHJva2Utd2lkdGg6MTsiIHgxPSIxMTY3LjUxOTUiIHgyPSIxMTY2LjczMTMiIHkxPSIyMDYuMzY4MiIgeTI9IjIxNi4zMzcxIi8+PGxpbmUgc3R5bGU9InN0cm9rZTojMTgxODE4O3N0cm9rZS13aWR0aDoxOyIgeDE9IjExNjcuNTE5NSIgeDI9IjExNTcuNzI4NyIgeTE9IjIwNi4zNjgyIiB5Mj0iMjA4LjQwMjkiLz48bGluZSBzdHlsZT0ic3Ryb2tlOiMxODE4MTg7c3Ryb2tlLXdpZHRoOjE7IiB4MT0iMTE2Ny41MTk1IiB4Mj0iMTE2Mi4yMyIgeTE9IjIwNi4zNjgyIiB5Mj0iMjEyLjM3Ii8+PGxpbmUgc3R5bGU9InN0cm9rZTojMTgxODE4O3N0cm9rZS13aWR0aDoxOyIgeDE9IjExNzEuODQyOCIgeDI9IjExNjUuODQxIiB5MT0iMjA3LjUxMjYiIHkyPSIyMDIuMjIzIi8+PHRleHQgZmlsbD0iIzAwMDAwMCIgZm9udC1mYW1pbHk9InNhbnMtc2VyaWYiIGZvbnQtc2l6ZT0iMTMiIGxlbmd0aEFkanVzdD0ic3BhY2luZyIgdGV4dExlbmd0aD0iOTcuNSIgeD0iMTIxMi41IiB5PSIxNzMuMjg5MSI+cXUmIzc4NDM7biBsJiMyNTM7IHRpbiB0JiM3OTEzO2M8L3RleHQ+PC9nPjwhLS1saW5rIEFkbWluIHRvIEZBUS0tPjxnIGNsYXNzPSJsaW5rIiBkYXRhLWVudGl0eS0xPSJBZG1pbiIgZGF0YS1lbnRpdHktMj0iRkFRIiBkYXRhLXNvdXJjZS1saW5lPSI5MiIgZGF0YS11aWQ9ImxuazIwIiBpZD0ibGlua19BZG1pbl9GQVEiPjxwYXRoIGNvZGVMaW5lPSI5MiIgZD0iTTEzMTguNSwxMzAuNTQgQzEzMTguNSwxNTguNDMgMTMxOC41LDE3Ni41MiAxMzE4LjUsMjA0LjQyIiBmaWxsPSJub25lIiBpZD0iQWRtaW4tRkFRIiBzdHlsZT0ic3Ryb2tlOiMxODE4MTg7c3Ryb2tlLXdpZHRoOjE7Ii8+PGxpbmUgc3R5bGU9InN0cm9rZTojMTgxODE4O3N0cm9rZS13aWR0aDoxOyIgeDE9IjEzMTQuNSIgeDI9IjEzMjIuNSIgeTE9IjEyNi41NCIgeTI9IjEyNi41NCIvPjxsaW5lIHN0eWxlPSJzdHJva2U6IzE4MTgxODtzdHJva2Utd2lkdGg6MTsiIHgxPSIxMzE0LjUiIHgyPSIxMzIyLjUiIHkxPSIxMjkuNTQiIHkyPSIxMjkuNTQiLz48bGluZSBzdHlsZT0ic3Ryb2tlOiMxODE4MTg7c3Ryb2tlLXdpZHRoOjE7IiB4MT0iMTMxOC41IiB4Mj0iMTMxOC41IiB5MT0iMTMwLjU0IiB5Mj0iMTIyLjU0Ii8+PGxpbmUgc3R5bGU9InN0cm9rZTojMTgxODE4O3N0cm9rZS13aWR0aDoxOyIgeDE9IjEzMTguNSIgeDI9IjEzMjQuNSIgeTE9IjIwNC40MiIgeTI9IjIxMi40MiIvPjxsaW5lIHN0eWxlPSJzdHJva2U6IzE4MTgxODtzdHJva2Utd2lkdGg6MTsiIHgxPSIxMzE4LjUiIHgyPSIxMzEyLjUiIHkxPSIyMDQuNDIiIHkyPSIyMTIuNDIiLz48bGluZSBzdHlsZT0ic3Ryb2tlOiMxODE4MTg7c3Ryb2tlLXdpZHRoOjE7IiB4MT0iMTMxOC41IiB4Mj0iMTMxOC41IiB5MT0iMjA0LjQyIiB5Mj0iMjEyLjQyIi8+PGxpbmUgc3R5bGU9InN0cm9rZTojMTgxODE4O3N0cm9rZS13aWR0aDoxOyIgeDE9IjEzMjIuNSIgeDI9IjEzMTQuNSIgeTE9IjIwMi40MiIgeTI9IjIwMi40MiIvPjx0ZXh0IGZpbGw9IiMwMDAwMDAiIGZvbnQtZmFtaWx5PSJzYW5zLXNlcmlmIiBmb250LXNpemU9IjEzIiBsZW5ndGhBZGp1c3Q9InNwYWNpbmciIHRleHRMZW5ndGg9Ijk3LjUiIHg9IjEzMTkuNSIgeT0iMTczLjI4OTEiPnF1JiM3ODQzO24gbCYjMjUzOyBoJiM3ODg3O2kgJiMyNzM7JiMyMjU7cDwvdGV4dD48L2c+PCEtLWxpbmsgQWRtaW4gdG8gUmVnaXN0cmF0aW9uR3VpZGUtLT48ZyBjbGFzcz0ibGluayIgZGF0YS1lbnRpdHktMT0iQWRtaW4iIGRhdGEtZW50aXR5LTI9IlJlZ2lzdHJhdGlvbkd1aWRlIiBkYXRhLXNvdXJjZS1saW5lPSI5MyIgZGF0YS11aWQ9ImxuazIxIiBpZD0ibGlua19BZG1pbl9SZWdpc3RyYXRpb25HdWlkZSI+PHBhdGggY29kZUxpbmU9IjkzIiBkPSJNMTM4OC44OTQ2LDEyNy43ODIzIEMxNDAzLjEyNDYsMTM5Ljg4MjMgMTQxMS45MSwxNDcuNjQgMTQyNS41LDE2MCBDMTQ0My44MywxNzYuNjYgMTQ1Ny42MzA3LDE4OS43OTYxIDE0NzQuOTYwNywyMDYuODA2MSIgZmlsbD0ibm9uZSIgaWQ9IkFkbWluLVJlZ2lzdHJhdGlvbkd1aWRlIiBzdHlsZT0ic3Ryb2tlOiMxODE4MTg7c3Ryb2tlLXdpZHRoOjE7Ii8+PGxpbmUgc3R5bGU9InN0cm9rZTojMTgxODE4O3N0cm9rZS13aWR0aDoxOyIgeDE9IjEzODMuMjU2MSIgeDI9IjEzODguNDM4NCIgeTE9IjEyOC4yMzg0IiB5Mj0iMTIyLjE0MzkiLz48bGluZSBzdHlsZT0ic3Ryb2tlOiMxODE4MTg7c3Ryb2tlLXdpZHRoOjE7IiB4MT0iMTM4NS41NDE2IiB4Mj0iMTM5MC43MjM5IiB5MT0iMTMwLjE4MTgiIHkyPSIxMjQuMDg3MiIvPjxsaW5lIHN0eWxlPSJzdHJva2U6IzE4MTgxODtzdHJva2Utd2lkdGg6MTsiIHgxPSIxMzg4Ljg5NDYiIHgyPSIxMzgyLjgiIHkxPSIxMjcuNzgyMyIgeTI9IjEyMi42Ii8+PGxpbmUgc3R5bGU9InN0cm9rZTojMTgxODE4O3N0cm9rZS13aWR0aDoxOyIgeDE9IjE0NzQuOTYwNyIgeDI9IjE0ODQuODcyOSIgeTE9IjIwNi44MDYxIiB5Mj0iMjA4LjEyOCIvPjxsaW5lIHN0eWxlPSJzdHJva2U6IzE4MTgxODtzdHJva2Utd2lkdGg6MTsiIHgxPSIxNDc0Ljk2MDciIHgyPSIxNDc2LjQ2NzEiIHkxPSIyMDYuODA2MSIgeTI9IjIxNi42OTIiLz48bGluZSBzdHlsZT0ic3Ryb2tlOiMxODE4MTg7c3Ryb2tlLXdpZHRoOjE7IiB4MT0iMTQ3NC45NjA3IiB4Mj0iMTQ4MC42NyIgeTE9IjIwNi44MDYxIiB5Mj0iMjEyLjQxIi8+PGxpbmUgc3R5bGU9InN0cm9rZTojMTgxODE4O3N0cm9rZS13aWR0aDoxOyIgeDE9IjE0NzYuMzM1MyIgeDI9IjE0NzAuNzMxNCIgeTE9IjIwMi41NTA1IiB5Mj0iMjA4LjI1OTgiLz48dGV4dCBmaWxsPSIjMDAwMDAwIiBmb250LWZhbWlseT0ic2Fucy1zZXJpZiIgZm9udC1zaXplPSIxMyIgbGVuZ3RoQWRqdXN0PSJzcGFjaW5nIiB0ZXh0TGVuZ3RoPSIxMTAuNSIgeD0iMTQ0MS41IiB5PSIxNzMuMjg5MSI+cXUmIzc4NDM7biBsJiMyNTM7IGgmIzQzMjsmIzc4OTk7bmcgZCYjNzg1MTtuPC90ZXh0PjwvZz48IS0tU1JDPVtqTEpCUmpEMDVEdGRBcVJQZWx2MExMTW9HVzhIUk80RzQzamhDWkVEWHpmWkNtejJyTkkxa2MyOWtncE80QjRnZzE4SWtyWThYSUYtbXRfMnpHbGlnVUM1Wi1yemRkbGtrUFM5cFZLZlVnZ09INlN6WEV1V0pqNGs2WHpEcVR4VWVtVngteGJEdTgyMXpQYXA2VG50OWhjOTFQWnhiWXRvR2M3N0hMWWZISVhmcE5wVXd4NlloSEQ1RllUT3lyMXFUM1MwcGdxdkhmTTNYNE9ncmtmSTZja1pzYnJjNWQzaktnbXBoN1VUd1IyNlFFMVhGR2xyTTZXY0NWYkpPMDVKMmktcHlqRlh5c2JrYWFuNWVMMERjLU9HZzc0R2JKWWN1eUM2YmRveVpseGJfMklhRGtrYmZzTGxDRnFCSFpHYTFKQ2sya2ZSU29iSkhGQWUzRlk1NlIzOUtyVUhLNlFMSG1TRmROOE1ZUmRXT2t2STh3a2cwQlZtNlB2UHQ2RU1DcHVTWjAtVFdtOER6WjZLbXlUMGpwa05jOWVnanVnZ1lPSzZOMmRtRmlidHN5NUJrTm5oLWNPYnlHX2F0WU5qOHhSZVdXV25fa3NiV1VnNGhoQ1RjUGRGYlJUNWgyRmRTS1VCYm1SNFBNcUYyeE0wSXd6UFk2SEdjeGZPUm5FWHE3MDhfXzRBSUQ2WEZnRTVPU0JjTkViMkxsU0NmLXBsWVZNbnFndzlpZndxbE1kakRxc09DZHVOMVZYdFIyaUpDWV9XNWhncW01NTZVQVBnVXlWdklydWtUdFFNUHVxX2tPbHc5RmNBajlWNjVxWWF5TE5LeHpOenZyZEFpZGVVNEJzdnQ1bzhFSmY5bGc1Tm9PVW1EVGctaFFnOUpEU2hvRExVaWtCejFnSU1IcmFjMk8tZHlIazNZMDVtMTA3RUFtdUxHWVhicm9ZcnJIWGZkaU90N0ZheS1JSW90QlZ6UktvS011NWF1UU5oNnU1RXFsTHQzUjlGcm5fSHctSFFtenl2WE9lMjlpdUZsWW9ITm9QYXZPNDItUzJCMWd6RXVzallYTU83cmVtNEhFeXVzYm1jZ3lZQWxJcklBX0Y3YnBILTNzSklURnJQejd5Ml0tLT48L2c+PC9zdmc+;" vertex="1" parent="1">
            <mxGeometry x="-600" y="270" width="1634" height="592" as="geometry" />
          </mxCell>
        </UserObject>
      </root>
    </mxGraphModel>
  </diagram>
  <diagram id="u00wAbixaTQYjyNNVuL0" name="Trang-2">
    <mxGraphModel dx="1428" dy="785" grid="1" gridSize="10" guides="1" tooltips="1" connect="1" arrows="1" fold="1" page="1" pageScale="1" pageWidth="827" pageHeight="1169" math="0" shadow="0">
      <root>
        <mxCell id="0" />
        <mxCell id="1" parent="0" />
      </root>
    </mxGraphModel>
  </diagram>
</mxfile>
